<svg width="66" height="37" viewBox="0 0 66 37" fill="none" xmlns="http://www.w3.org/2000/svg">
<mask id="path-1-outside-1_2011_12" maskUnits="userSpaceOnUse" x="-1" y="0" width="68" height="38" fill="black">
<rect fill="white" x="-1" width="68" height="38"/>
<path d="M38.2656 30.4512C38.2207 30.6159 38.1159 30.8854 37.9512 31.2598C37.7865 31.6191 37.5768 32.0309 37.3223 32.4951C37.0827 32.9593 36.8057 33.446 36.4912 33.9551C36.1768 34.4492 35.8473 34.8984 35.5029 35.3027C35.1585 35.722 34.7992 36.0589 34.4248 36.3135C34.0505 36.583 33.6911 36.7178 33.3467 36.7178C32.8226 36.7178 32.3734 36.4782 31.999 35.999C31.6396 35.5199 31.3477 34.9209 31.123 34.2021C30.8984 33.4834 30.7337 32.6973 30.6289 31.8438C30.5391 30.9902 30.4941 30.1891 30.4941 29.4404C30.4941 27.1195 30.6439 24.8285 30.9434 22.5674C31.2428 20.2913 31.6322 18.0378 32.1113 15.8066C32.6055 13.5755 33.1595 11.3669 33.7734 9.18066C34.4023 6.97949 35.0312 4.79329 35.6602 2.62207C35.3457 2.62207 34.904 2.99642 34.335 3.74512C33.7809 4.49382 33.1445 5.4821 32.4258 6.70996C31.707 7.93783 30.9284 9.34538 30.0898 10.9326C29.2513 12.5199 28.4053 14.152 27.5518 15.8291C26.6982 17.4912 25.8522 19.1383 25.0137 20.7705C24.1751 22.3877 23.3965 23.8551 22.6777 25.1729C22.6029 25.3076 22.5055 25.4798 22.3857 25.6895C22.266 25.8841 22.1237 26.0713 21.959 26.251C21.8092 26.4307 21.637 26.5879 21.4424 26.7227C21.2477 26.8574 21.0456 26.9248 20.8359 26.9248C20.6113 26.9248 20.4541 26.8499 20.3643 26.7002C20.2744 26.5505 20.2145 26.3483 20.1846 26.0938C20.1097 25.2103 20.0423 24.2145 19.9824 23.1064C19.9225 21.9834 19.8551 20.8454 19.7803 19.6924C19.7204 18.5244 19.653 17.3789 19.5781 16.2559C19.5033 15.1178 19.4209 14.0846 19.3311 13.1562C19.2412 12.2129 19.1364 11.4193 19.0166 10.7754C18.8968 10.1165 18.7546 9.68229 18.5898 9.47266C18.5898 9.59245 18.5973 9.72721 18.6123 9.87695C18.6123 9.99674 18.6123 10.1465 18.6123 10.3262C18.6273 10.5059 18.6348 10.7005 18.6348 10.9102C18.6348 11.6589 18.5599 12.5798 18.4102 13.6729C18.2604 14.766 18.0358 15.9564 17.7363 17.2441C17.4368 18.5169 17.0625 19.8496 16.6133 21.2422C16.179 22.6198 15.6699 23.9749 15.0859 25.3076C14.502 26.6403 13.8506 27.9131 13.1318 29.126C12.4131 30.3239 11.6195 31.3796 10.751 32.293C9.88249 33.1914 8.94661 33.9027 7.94336 34.4268C6.95508 34.9658 5.89941 35.2354 4.77637 35.2354C4.0127 35.2354 3.3763 35.0856 2.86719 34.7861C2.35807 34.5016 1.94629 34.1572 1.63184 33.7529C1.31738 33.3337 1.0778 32.9069 0.913086 32.4727C0.748372 32.0234 0.628581 31.6566 0.553711 31.3721L0.77832 31.2822C0.958008 31.7165 1.20508 32.0758 1.51953 32.3604C1.83398 32.6449 2.17839 32.8695 2.55273 33.0342C2.94206 33.1989 3.34635 33.3187 3.76562 33.3936C4.19987 33.4535 4.63411 33.4834 5.06836 33.4834C6.05664 33.4834 7 33.2588 7.89844 32.8096C8.79688 32.3454 9.63542 31.724 10.4141 30.9453C11.2077 30.1517 11.9414 29.2308 12.6152 28.1826C13.304 27.1195 13.9255 25.9889 14.4795 24.791C15.0485 23.5931 15.5426 22.3577 15.9619 21.085C16.3962 19.7972 16.7555 18.5319 17.04 17.2891C17.3395 16.0462 17.5566 14.8558 17.6914 13.7178C17.8411 12.5798 17.9085 11.554 17.8936 10.6406C17.8936 10.431 17.8786 10.1914 17.8486 9.92188C17.8187 9.65234 17.7887 9.39779 17.7588 9.1582C17.7738 9.09831 17.8037 9.01595 17.8486 8.91113C17.9085 8.80632 17.9834 8.7015 18.0732 8.59668C18.1631 8.49186 18.2679 8.40951 18.3877 8.34961C18.5225 8.27474 18.6797 8.2373 18.8594 8.2373C19.2786 8.2373 19.623 8.53678 19.8926 9.13574C20.1771 9.7347 20.4017 10.5208 20.5664 11.4941C20.7311 12.4674 20.8584 13.5755 20.9482 14.8184C21.0381 16.0462 21.113 17.2965 21.1729 18.5693C21.2327 19.8421 21.2852 21.0775 21.3301 22.2754C21.375 23.4733 21.4424 24.514 21.5322 25.3975C21.6221 25.3975 21.7943 25.1654 22.0488 24.7012C22.3184 24.237 22.6553 23.6156 23.0596 22.8369C23.4639 22.0433 23.9281 21.1224 24.4521 20.0742C24.9762 19.0111 25.5303 17.888 26.1143 16.7051C26.7132 15.5221 27.3346 14.3018 27.9785 13.0439C28.6374 11.7861 29.2887 10.5658 29.9326 9.38281C30.5915 8.19987 31.2428 7.08431 31.8867 6.03613C32.5306 4.97298 33.1445 4.05208 33.7285 3.27344C34.3125 2.47982 34.859 1.85091 35.3682 1.38672C35.8773 0.922526 36.3265 0.69043 36.7158 0.69043C36.8356 0.765299 36.9554 0.855143 37.0752 0.959961C37.195 1.0498 37.2549 1.16211 37.2549 1.29688C36.7008 3.31836 36.1169 5.46712 35.5029 7.74316C34.889 10.0042 34.32 12.3252 33.7959 14.7061C33.2868 17.0869 32.86 19.4902 32.5156 21.916C32.1862 24.3418 32.0215 26.7301 32.0215 29.0811C32.0215 29.6501 32.0664 30.279 32.1562 30.9678C32.2461 31.6416 32.3809 32.2705 32.5605 32.8545C32.7402 33.4385 32.9574 33.9251 33.2119 34.3145C33.4665 34.7188 33.7585 34.9209 34.0879 34.9209C34.3724 34.9209 34.7093 34.7412 35.0986 34.3818C35.488 34.0225 35.8773 33.6032 36.2666 33.124C36.6559 32.6299 37.0078 32.1283 37.3223 31.6191C37.6517 31.0951 37.8913 30.6758 38.041 30.3613L38.2656 30.4512ZM50.0576 35.6621C49.7881 35.6621 49.5335 35.6172 49.2939 35.5273C49.0693 35.4525 48.8747 35.3551 48.71 35.2354C48.5602 35.1156 48.4404 34.9808 48.3506 34.8311C48.2607 34.6963 48.2158 34.569 48.2158 34.4492C48.2158 34.3444 48.2458 34.2171 48.3057 34.0674C48.3805 33.9176 48.4629 33.7754 48.5527 33.6406C48.6576 33.5059 48.7549 33.3936 48.8447 33.3037C48.9495 33.2139 49.0319 33.1689 49.0918 33.1689C49.1667 33.1689 49.2116 33.1989 49.2266 33.2588C49.2415 33.3037 49.249 33.3636 49.249 33.4385C49.264 33.4984 49.279 33.5658 49.2939 33.6406C49.3089 33.7155 49.3538 33.7754 49.4287 33.8203C49.5934 33.9102 49.7881 33.985 50.0127 34.0449C50.2523 34.1048 50.6416 34.1348 51.1807 34.1348C51.8695 34.1348 52.5133 34.0299 53.1123 33.8203C53.7262 33.5957 54.2578 33.3037 54.707 32.9443C55.1712 32.57 55.5306 32.1357 55.7852 31.6416C56.0547 31.1475 56.1895 30.6159 56.1895 30.0469C56.1895 29.2682 55.9424 28.6468 55.4482 28.1826C54.9691 27.7184 54.3252 27.3441 53.5166 27.0596C52.723 26.7601 51.8096 26.5205 50.7764 26.3408C49.7581 26.1611 48.7174 25.9665 47.6543 25.7568C46.5911 25.5322 45.543 25.2552 44.5098 24.9258C43.4915 24.5814 42.5781 24.1172 41.7695 23.5332C40.9759 22.9492 40.332 22.2005 39.8379 21.2871C39.3587 20.3737 39.1191 19.2282 39.1191 17.8506C39.1191 16.3083 39.4336 14.8408 40.0625 13.4482C40.6914 12.0407 41.5374 10.738 42.6006 9.54004C43.6637 8.34212 44.8841 7.264 46.2617 6.30566C47.6393 5.34733 49.0768 4.53125 50.5742 3.85742C52.0716 3.18359 53.5765 2.66699 55.0889 2.30762C56.6162 1.93327 58.0387 1.74609 59.3564 1.74609C61.4827 1.74609 63.0999 2.12793 64.208 2.8916C65.3311 3.6403 65.8926 4.76335 65.8926 6.26074C65.8926 6.93457 65.7354 7.57845 65.4209 8.19238C65.1064 8.80632 64.7546 9.36035 64.3652 9.85449C63.9759 10.3337 63.6016 10.738 63.2422 11.0674C62.8978 11.3818 62.6882 11.5765 62.6133 11.6514L62.4785 11.4492C62.4935 11.4342 62.6283 11.292 62.8828 11.0225C63.1374 10.7529 63.4069 10.4085 63.6914 9.98926C63.9759 9.56999 64.238 9.10579 64.4775 8.59668C64.7171 8.08757 64.8369 7.57096 64.8369 7.04688C64.8369 5.83398 64.3353 4.93555 63.332 4.35156C62.3288 3.7526 60.8688 3.45312 58.9521 3.45312C56.9756 3.45312 55.1338 3.68522 53.4268 4.14941C51.7197 4.61361 50.1549 5.23503 48.7324 6.01367C47.3249 6.77734 46.0671 7.66081 44.959 8.66406C43.8659 9.66732 42.9375 10.7005 42.1738 11.7637C41.4251 12.8268 40.8486 13.8825 40.4443 14.9307C40.055 15.9788 39.8604 16.9372 39.8604 17.8057C39.8604 18.9736 40.1074 19.932 40.6016 20.6807C41.0957 21.4144 41.7471 22.0208 42.5557 22.5C43.3643 22.9642 44.2777 23.3236 45.2959 23.5781C46.3291 23.8327 47.3848 24.0573 48.4629 24.252C49.541 24.4466 50.5892 24.6488 51.6074 24.8584C52.6406 25.0531 53.5615 25.3301 54.3701 25.6895C55.1787 26.0339 55.8301 26.498 56.3242 27.082C56.8184 27.651 57.0654 28.4072 57.0654 29.3506C57.0654 30.2191 56.9232 30.9753 56.6387 31.6191C56.3691 32.263 56.0173 32.8171 55.583 33.2812C55.1488 33.7454 54.6621 34.1273 54.123 34.4268C53.599 34.7412 53.0749 34.9883 52.5508 35.168C52.0267 35.3477 51.54 35.4749 51.0908 35.5498C50.6566 35.6247 50.3122 35.6621 50.0576 35.6621Z"/>
</mask>
<path d="M38.2656 30.4512C38.2207 30.6159 38.1159 30.8854 37.9512 31.2598C37.7865 31.6191 37.5768 32.0309 37.3223 32.4951C37.0827 32.9593 36.8057 33.446 36.4912 33.9551C36.1768 34.4492 35.8473 34.8984 35.5029 35.3027C35.1585 35.722 34.7992 36.0589 34.4248 36.3135C34.0505 36.583 33.6911 36.7178 33.3467 36.7178C32.8226 36.7178 32.3734 36.4782 31.999 35.999C31.6396 35.5199 31.3477 34.9209 31.123 34.2021C30.8984 33.4834 30.7337 32.6973 30.6289 31.8438C30.5391 30.9902 30.4941 30.1891 30.4941 29.4404C30.4941 27.1195 30.6439 24.8285 30.9434 22.5674C31.2428 20.2913 31.6322 18.0378 32.1113 15.8066C32.6055 13.5755 33.1595 11.3669 33.7734 9.18066C34.4023 6.97949 35.0312 4.79329 35.6602 2.62207C35.3457 2.62207 34.904 2.99642 34.335 3.74512C33.7809 4.49382 33.1445 5.4821 32.4258 6.70996C31.707 7.93783 30.9284 9.34538 30.0898 10.9326C29.2513 12.5199 28.4053 14.152 27.5518 15.8291C26.6982 17.4912 25.8522 19.1383 25.0137 20.7705C24.1751 22.3877 23.3965 23.8551 22.6777 25.1729C22.6029 25.3076 22.5055 25.4798 22.3857 25.6895C22.266 25.8841 22.1237 26.0713 21.959 26.251C21.8092 26.4307 21.637 26.5879 21.4424 26.7227C21.2477 26.8574 21.0456 26.9248 20.8359 26.9248C20.6113 26.9248 20.4541 26.8499 20.3643 26.7002C20.2744 26.5505 20.2145 26.3483 20.1846 26.0938C20.1097 25.2103 20.0423 24.2145 19.9824 23.1064C19.9225 21.9834 19.8551 20.8454 19.7803 19.6924C19.7204 18.5244 19.653 17.3789 19.5781 16.2559C19.5033 15.1178 19.4209 14.0846 19.3311 13.1562C19.2412 12.2129 19.1364 11.4193 19.0166 10.7754C18.8968 10.1165 18.7546 9.68229 18.5898 9.47266C18.5898 9.59245 18.5973 9.72721 18.6123 9.87695C18.6123 9.99674 18.6123 10.1465 18.6123 10.3262C18.6273 10.5059 18.6348 10.7005 18.6348 10.9102C18.6348 11.6589 18.5599 12.5798 18.4102 13.6729C18.2604 14.766 18.0358 15.9564 17.7363 17.2441C17.4368 18.5169 17.0625 19.8496 16.6133 21.2422C16.179 22.6198 15.6699 23.9749 15.0859 25.3076C14.502 26.6403 13.8506 27.9131 13.1318 29.126C12.4131 30.3239 11.6195 31.3796 10.751 32.293C9.88249 33.1914 8.94661 33.9027 7.94336 34.4268C6.95508 34.9658 5.89941 35.2354 4.77637 35.2354C4.0127 35.2354 3.3763 35.0856 2.86719 34.7861C2.35807 34.5016 1.94629 34.1572 1.63184 33.7529C1.31738 33.3337 1.0778 32.9069 0.913086 32.4727C0.748372 32.0234 0.628581 31.6566 0.553711 31.3721L0.77832 31.2822C0.958008 31.7165 1.20508 32.0758 1.51953 32.3604C1.83398 32.6449 2.17839 32.8695 2.55273 33.0342C2.94206 33.1989 3.34635 33.3187 3.76562 33.3936C4.19987 33.4535 4.63411 33.4834 5.06836 33.4834C6.05664 33.4834 7 33.2588 7.89844 32.8096C8.79688 32.3454 9.63542 31.724 10.4141 30.9453C11.2077 30.1517 11.9414 29.2308 12.6152 28.1826C13.304 27.1195 13.9255 25.9889 14.4795 24.791C15.0485 23.5931 15.5426 22.3577 15.9619 21.085C16.3962 19.7972 16.7555 18.5319 17.04 17.2891C17.3395 16.0462 17.5566 14.8558 17.6914 13.7178C17.8411 12.5798 17.9085 11.554 17.8936 10.6406C17.8936 10.431 17.8786 10.1914 17.8486 9.92188C17.8187 9.65234 17.7887 9.39779 17.7588 9.1582C17.7738 9.09831 17.8037 9.01595 17.8486 8.91113C17.9085 8.80632 17.9834 8.7015 18.0732 8.59668C18.1631 8.49186 18.2679 8.40951 18.3877 8.34961C18.5225 8.27474 18.6797 8.2373 18.8594 8.2373C19.2786 8.2373 19.623 8.53678 19.8926 9.13574C20.1771 9.7347 20.4017 10.5208 20.5664 11.4941C20.7311 12.4674 20.8584 13.5755 20.9482 14.8184C21.0381 16.0462 21.113 17.2965 21.1729 18.5693C21.2327 19.8421 21.2852 21.0775 21.3301 22.2754C21.375 23.4733 21.4424 24.514 21.5322 25.3975C21.6221 25.3975 21.7943 25.1654 22.0488 24.7012C22.3184 24.237 22.6553 23.6156 23.0596 22.8369C23.4639 22.0433 23.9281 21.1224 24.4521 20.0742C24.9762 19.0111 25.5303 17.888 26.1143 16.7051C26.7132 15.5221 27.3346 14.3018 27.9785 13.0439C28.6374 11.7861 29.2887 10.5658 29.9326 9.38281C30.5915 8.19987 31.2428 7.08431 31.8867 6.03613C32.5306 4.97298 33.1445 4.05208 33.7285 3.27344C34.3125 2.47982 34.859 1.85091 35.3682 1.38672C35.8773 0.922526 36.3265 0.69043 36.7158 0.69043C36.8356 0.765299 36.9554 0.855143 37.0752 0.959961C37.195 1.0498 37.2549 1.16211 37.2549 1.29688C36.7008 3.31836 36.1169 5.46712 35.5029 7.74316C34.889 10.0042 34.32 12.3252 33.7959 14.7061C33.2868 17.0869 32.86 19.4902 32.5156 21.916C32.1862 24.3418 32.0215 26.7301 32.0215 29.0811C32.0215 29.6501 32.0664 30.279 32.1562 30.9678C32.2461 31.6416 32.3809 32.2705 32.5605 32.8545C32.7402 33.4385 32.9574 33.9251 33.2119 34.3145C33.4665 34.7188 33.7585 34.9209 34.0879 34.9209C34.3724 34.9209 34.7093 34.7412 35.0986 34.3818C35.488 34.0225 35.8773 33.6032 36.2666 33.124C36.6559 32.6299 37.0078 32.1283 37.3223 31.6191C37.6517 31.0951 37.8913 30.6758 38.041 30.3613L38.2656 30.4512ZM50.0576 35.6621C49.7881 35.6621 49.5335 35.6172 49.2939 35.5273C49.0693 35.4525 48.8747 35.3551 48.71 35.2354C48.5602 35.1156 48.4404 34.9808 48.3506 34.8311C48.2607 34.6963 48.2158 34.569 48.2158 34.4492C48.2158 34.3444 48.2458 34.2171 48.3057 34.0674C48.3805 33.9176 48.4629 33.7754 48.5527 33.6406C48.6576 33.5059 48.7549 33.3936 48.8447 33.3037C48.9495 33.2139 49.0319 33.1689 49.0918 33.1689C49.1667 33.1689 49.2116 33.1989 49.2266 33.2588C49.2415 33.3037 49.249 33.3636 49.249 33.4385C49.264 33.4984 49.279 33.5658 49.2939 33.6406C49.3089 33.7155 49.3538 33.7754 49.4287 33.8203C49.5934 33.9102 49.7881 33.985 50.0127 34.0449C50.2523 34.1048 50.6416 34.1348 51.1807 34.1348C51.8695 34.1348 52.5133 34.0299 53.1123 33.8203C53.7262 33.5957 54.2578 33.3037 54.707 32.9443C55.1712 32.57 55.5306 32.1357 55.7852 31.6416C56.0547 31.1475 56.1895 30.6159 56.1895 30.0469C56.1895 29.2682 55.9424 28.6468 55.4482 28.1826C54.9691 27.7184 54.3252 27.3441 53.5166 27.0596C52.723 26.7601 51.8096 26.5205 50.7764 26.3408C49.7581 26.1611 48.7174 25.9665 47.6543 25.7568C46.5911 25.5322 45.543 25.2552 44.5098 24.9258C43.4915 24.5814 42.5781 24.1172 41.7695 23.5332C40.9759 22.9492 40.332 22.2005 39.8379 21.2871C39.3587 20.3737 39.1191 19.2282 39.1191 17.8506C39.1191 16.3083 39.4336 14.8408 40.0625 13.4482C40.6914 12.0407 41.5374 10.738 42.6006 9.54004C43.6637 8.34212 44.8841 7.264 46.2617 6.30566C47.6393 5.34733 49.0768 4.53125 50.5742 3.85742C52.0716 3.18359 53.5765 2.66699 55.0889 2.30762C56.6162 1.93327 58.0387 1.74609 59.3564 1.74609C61.4827 1.74609 63.0999 2.12793 64.208 2.8916C65.3311 3.6403 65.8926 4.76335 65.8926 6.26074C65.8926 6.93457 65.7354 7.57845 65.4209 8.19238C65.1064 8.80632 64.7546 9.36035 64.3652 9.85449C63.9759 10.3337 63.6016 10.738 63.2422 11.0674C62.8978 11.3818 62.6882 11.5765 62.6133 11.6514L62.4785 11.4492C62.4935 11.4342 62.6283 11.292 62.8828 11.0225C63.1374 10.7529 63.4069 10.4085 63.6914 9.98926C63.9759 9.56999 64.238 9.10579 64.4775 8.59668C64.7171 8.08757 64.8369 7.57096 64.8369 7.04688C64.8369 5.83398 64.3353 4.93555 63.332 4.35156C62.3288 3.7526 60.8688 3.45312 58.9521 3.45312C56.9756 3.45312 55.1338 3.68522 53.4268 4.14941C51.7197 4.61361 50.1549 5.23503 48.7324 6.01367C47.3249 6.77734 46.0671 7.66081 44.959 8.66406C43.8659 9.66732 42.9375 10.7005 42.1738 11.7637C41.4251 12.8268 40.8486 13.8825 40.4443 14.9307C40.055 15.9788 39.8604 16.9372 39.8604 17.8057C39.8604 18.9736 40.1074 19.932 40.6016 20.6807C41.0957 21.4144 41.7471 22.0208 42.5557 22.5C43.3643 22.9642 44.2777 23.3236 45.2959 23.5781C46.3291 23.8327 47.3848 24.0573 48.4629 24.252C49.541 24.4466 50.5892 24.6488 51.6074 24.8584C52.6406 25.0531 53.5615 25.3301 54.3701 25.6895C55.1787 26.0339 55.8301 26.498 56.3242 27.082C56.8184 27.651 57.0654 28.4072 57.0654 29.3506C57.0654 30.2191 56.9232 30.9753 56.6387 31.6191C56.3691 32.263 56.0173 32.8171 55.583 33.2812C55.1488 33.7454 54.6621 34.1273 54.123 34.4268C53.599 34.7412 53.0749 34.9883 52.5508 35.168C52.0267 35.3477 51.54 35.4749 51.0908 35.5498C50.6566 35.6247 50.3122 35.6621 50.0576 35.6621Z" fill="#26313F"/>
<path d="M38.2656 30.4512L38.748 30.5827L38.8653 30.1525L38.4513 29.9869L38.2656 30.4512ZM37.9512 31.2598L38.4058 31.4681L38.4088 31.4611L37.9512 31.2598ZM37.3223 32.4951L36.8837 32.2546L36.878 32.2658L37.3223 32.4951ZM36.4912 33.9551L36.9131 34.2235L36.9166 34.2178L36.4912 33.9551ZM35.5029 35.3027L35.1222 34.9785L35.1166 34.9854L35.5029 35.3027ZM34.4248 36.3135L34.1435 35.8999L34.1327 35.9077L34.4248 36.3135ZM31.999 35.999L31.5989 36.2991L31.605 36.3068L31.999 35.999ZM30.6289 31.8438L30.1316 31.8961L30.1326 31.9047L30.6289 31.8438ZM30.9434 22.5674L31.439 22.633L31.4391 22.6326L30.9434 22.5674ZM32.1113 15.8066L31.6231 15.6985L31.6225 15.7017L32.1113 15.8066ZM33.7734 9.18066L33.2927 9.0433L33.2921 9.04548L33.7734 9.18066ZM35.6602 2.62207L36.1404 2.76118L36.3255 2.12207H35.6602V2.62207ZM34.335 3.74512L33.9368 3.44255L33.933 3.4477L34.335 3.74512ZM30.0898 10.9326L30.5319 11.1662L30.0898 10.9326ZM27.5518 15.8291L27.9965 16.0575L27.9974 16.0559L27.5518 15.8291ZM25.0137 20.7705L25.4576 21.0007L25.4584 20.999L25.0137 20.7705ZM22.6777 25.1729L23.1148 25.4157L23.1167 25.4123L22.6777 25.1729ZM22.3857 25.6895L22.8116 25.9515L22.8158 25.9446L22.8199 25.9375L22.3857 25.6895ZM21.959 26.251L21.5904 25.9131L21.5824 25.9218L21.5749 25.9309L21.959 26.251ZM20.1846 26.0938L19.6864 26.136L19.687 26.1441L19.688 26.1522L20.1846 26.0938ZM19.9824 23.1064L19.4831 23.1331L19.4832 23.1334L19.9824 23.1064ZM19.7803 19.6924L19.2809 19.718L19.2813 19.7248L19.7803 19.6924ZM19.5781 16.2559L19.0792 16.2887L19.0792 16.2891L19.5781 16.2559ZM19.3311 13.1562L18.8333 13.2037L18.8334 13.2044L19.3311 13.1562ZM19.0166 10.7754L18.5247 10.8648L18.525 10.8668L19.0166 10.7754ZM18.5898 9.47266L18.983 9.16375L18.0898 8.027V9.47266H18.5898ZM18.6123 9.87695H19.1123V9.85201L19.1098 9.8272L18.6123 9.87695ZM18.6123 10.3262H18.1123V10.347L18.114 10.3677L18.6123 10.3262ZM17.7363 17.2441L18.223 17.3587L18.2233 17.3574L17.7363 17.2441ZM16.6133 21.2422L16.1374 21.0887L16.1364 21.0919L16.6133 21.2422ZM13.1318 29.126L13.5606 29.3832L13.562 29.3809L13.1318 29.126ZM10.751 32.293L11.1105 32.6405L11.1133 32.6375L10.751 32.293ZM7.94336 34.4268L7.71181 33.9835L7.70393 33.9878L7.94336 34.4268ZM2.86719 34.7861L3.12076 34.3551L3.1111 34.3497L2.86719 34.7861ZM1.63184 33.7529L1.23177 34.053L1.23716 34.0599L1.63184 33.7529ZM0.913086 32.4727L0.443619 32.6448L0.445587 32.65L0.913086 32.4727ZM0.553711 31.3721L0.368016 30.9078L-0.0422902 31.072L0.0701737 31.4993L0.553711 31.3721ZM0.77832 31.2822L1.24033 31.091L1.0514 30.6345L0.592625 30.818L0.77832 31.2822ZM1.51953 32.3604L1.18407 32.7311L1.51953 32.3604ZM2.55273 33.0342L2.35134 33.4919L2.35791 33.4947L2.55273 33.0342ZM3.76562 33.3936L3.67773 33.8858L3.68749 33.8875L3.69731 33.8889L3.76562 33.3936ZM7.89844 32.8096L8.12206 33.2568L8.12795 33.2538L7.89844 32.8096ZM10.4141 30.9453L10.7676 31.2989L10.4141 30.9453ZM12.6152 28.1826L12.1956 27.9107L12.1946 27.9122L12.6152 28.1826ZM14.4795 24.791L14.0278 24.5765L14.0257 24.5811L14.4795 24.791ZM15.9619 21.085L15.4881 20.9252L15.487 20.9285L15.9619 21.085ZM17.04 17.2891L16.5539 17.1719L16.5526 17.1775L17.04 17.2891ZM17.6914 13.7178L17.1956 13.6525L17.1949 13.659L17.6914 13.7178ZM17.8936 10.6406H17.3935L17.3936 10.6488L17.8936 10.6406ZM17.7588 9.1582L17.2737 9.03694L17.2511 9.12754L17.2626 9.22022L17.7588 9.1582ZM17.8486 8.91113L17.4145 8.66306L17.4003 8.68789L17.3891 8.71417L17.8486 8.91113ZM18.3877 8.34961L18.6113 8.79682L18.621 8.79196L18.6305 8.78669L18.3877 8.34961ZM19.8926 9.13574L19.4365 9.34097L19.4409 9.35027L19.8926 9.13574ZM20.9482 14.8184L20.4495 14.8544L20.4496 14.8548L20.9482 14.8184ZM21.3301 22.2754L20.8304 22.2941L21.3301 22.2754ZM21.5322 25.3975L21.0348 25.448L21.0805 25.8975H21.5322V25.3975ZM22.0488 24.7012L21.6163 24.45L21.6104 24.4608L22.0488 24.7012ZM23.0596 22.8369L23.5033 23.0673L23.5051 23.0639L23.0596 22.8369ZM24.4521 20.0742L24.8994 20.2978L24.9006 20.2953L24.4521 20.0742ZM26.1143 16.7051L25.6682 16.4792L25.6659 16.4837L26.1143 16.7051ZM27.9785 13.0439L27.5356 12.8119L27.5334 12.8161L27.9785 13.0439ZM29.9326 9.38281L29.4958 9.13951L29.4935 9.14378L29.9326 9.38281ZM31.8867 6.03613L32.3128 6.29785L32.3144 6.29515L31.8867 6.03613ZM33.7285 3.27344L34.1285 3.57345L34.1312 3.56978L33.7285 3.27344ZM36.7158 0.69043L36.9808 0.26643L36.8592 0.19043H36.7158V0.69043ZM37.0752 0.959961L36.7459 1.33625L36.7601 1.34866L36.7752 1.35996L37.0752 0.959961ZM37.2549 1.29688L37.7371 1.42904L37.7549 1.36415V1.29688H37.2549ZM35.5029 7.74316L35.9855 7.87418L35.9857 7.87338L35.5029 7.74316ZM33.7959 14.7061L33.3076 14.5986L33.307 14.6015L33.7959 14.7061ZM32.5156 21.916L32.0206 21.8457L32.0202 21.8487L32.5156 21.916ZM32.1562 30.9678L31.6604 31.0324L31.6606 31.0339L32.1562 30.9678ZM33.2119 34.3145L33.6351 34.048L33.6304 34.0408L33.2119 34.3145ZM36.2666 33.124L36.6547 33.4394L36.6593 33.4335L36.2666 33.124ZM37.3223 31.6191L36.8989 31.353L36.8969 31.3564L37.3223 31.6191ZM38.041 30.3613L38.2267 29.8971L37.7912 29.7229L37.5896 30.1464L38.041 30.3613ZM37.7832 30.3196C37.7491 30.4448 37.6582 30.6842 37.4935 31.0584L38.4088 31.4611C38.5736 31.0867 38.6923 30.7869 38.748 30.5827L37.7832 30.3196ZM37.4966 31.0514C37.3383 31.397 37.1345 31.7977 36.8839 32.2547L37.7607 32.7355C38.0192 32.2641 38.2347 31.8413 38.4057 31.4681L37.4966 31.0514ZM36.878 32.2658C36.645 32.7171 36.3745 33.1926 36.0658 33.6923L36.9166 34.2178C37.2368 33.6993 37.5203 33.2015 37.7666 32.7244L36.878 32.2658ZM36.0694 33.6866C35.7661 34.1632 35.4503 34.5935 35.1223 34.9785L35.8836 35.627C36.2444 35.2034 36.5874 34.7352 36.913 34.2235L36.0694 33.6866ZM35.1166 34.9854C34.7967 35.3748 34.4716 35.677 34.1437 35.9L34.706 36.7269C35.1267 36.4408 35.5204 36.0692 35.8893 35.6201L35.1166 34.9854ZM34.1327 35.9077C33.8149 36.1365 33.5559 36.2178 33.3467 36.2178V37.2178C33.8263 37.2178 34.286 37.0295 34.717 36.7192L34.1327 35.9077ZM33.3467 36.2178C33.0023 36.2178 32.6897 36.071 32.393 35.6912L31.605 36.3068C32.057 36.8854 32.6429 37.2178 33.3467 37.2178V36.2178ZM32.399 35.699C32.0813 35.2754 31.8121 34.7308 31.6003 34.053L30.6458 34.3513C30.8832 35.111 31.198 35.7643 31.599 36.299L32.399 35.699ZM31.6003 34.053C31.3858 33.3667 31.2268 32.6105 31.1252 31.7828L30.1326 31.9047C30.2406 32.784 30.411 33.6001 30.6458 34.3513L31.6003 34.053ZM31.1262 31.7914C31.0379 30.9528 30.9941 30.1693 30.9941 29.4404H29.9941C29.9941 30.2089 30.0402 31.0276 30.1317 31.8961L31.1262 31.7914ZM30.9941 29.4404C30.9941 27.141 31.1425 24.872 31.439 22.633L30.4477 22.5017C30.1453 24.7849 29.9941 27.0979 29.9941 29.4404H30.9941ZM31.4391 22.6326C31.7368 20.3698 32.1239 18.1295 32.6002 15.9116L31.6225 15.7017C31.1405 17.946 30.7489 20.2129 30.4476 22.5022L31.4391 22.6326ZM32.5995 15.9148C33.0916 13.6927 33.6434 11.493 34.2548 9.31585L33.2921 9.04548C32.6756 11.2407 32.1193 13.4584 31.6232 15.6985L32.5995 15.9148ZM34.2542 9.31802C34.8829 7.11743 35.5117 4.93181 36.1404 2.76118L35.1799 2.48296C34.5508 4.65477 33.9217 6.84156 33.2927 9.0433L34.2542 9.31802ZM35.6602 2.12207C35.3192 2.12207 35.0138 2.31455 34.7698 2.52138C34.5094 2.742 34.2316 3.05482 33.9369 3.44258L34.733 4.04766C35.0074 3.68672 35.2349 3.43801 35.4163 3.28428C35.6139 3.11677 35.6867 3.12207 35.6602 3.12207V2.12207ZM33.933 3.4477C33.3644 4.21619 32.7179 5.22119 31.9943 6.45737L32.8573 6.96255C33.5712 5.74301 34.1975 4.77144 34.7369 4.04254L33.933 3.4477ZM31.9943 6.45737C31.2711 7.69287 30.4888 9.10697 29.6477 10.6991L30.5319 11.1662C31.3679 9.58379 32.143 8.18278 32.8573 6.96255L31.9943 6.45737ZM29.6477 10.6991C28.808 12.2887 27.9608 13.9231 27.1061 15.6023L27.9974 16.0559C28.8498 14.381 29.6946 12.7511 30.5319 11.1662L29.6477 10.6991ZM27.107 15.6007C26.2535 17.2628 25.4075 18.9099 24.5689 20.542L25.4584 20.999C26.297 19.3668 27.143 17.7196 27.9965 16.0575L27.107 15.6007ZM24.5698 20.5403C23.7325 22.1551 22.9556 23.6194 22.2388 24.9334L23.1167 25.4123C23.8374 24.0909 24.6177 22.6203 25.4576 21.0007L24.5698 20.5403ZM22.2407 24.93C22.1671 25.0624 22.0709 25.2326 21.9516 25.4414L22.8199 25.9375C22.9402 25.727 23.0386 25.5529 23.1148 25.4157L22.2407 24.93ZM21.9599 25.4274C21.8578 25.5933 21.7351 25.7553 21.5904 25.9131L22.3276 26.5888C22.5123 26.3873 22.6741 26.1749 22.8116 25.9515L21.9599 25.4274ZM21.5749 25.9309C21.4544 26.0755 21.3158 26.2022 21.1578 26.3116L21.727 27.1338C21.9583 26.9736 22.1641 26.7859 22.3431 26.5711L21.5749 25.9309ZM21.1578 26.3116C21.0355 26.3962 20.931 26.4248 20.8359 26.4248V27.4248C21.1601 27.4248 21.4599 27.3186 21.727 27.1338L21.1578 26.3116ZM20.8359 26.4248C20.7772 26.4248 20.7595 26.4148 20.7645 26.4172C20.7675 26.4187 20.7737 26.4222 20.7806 26.4285C20.7875 26.4348 20.7915 26.4404 20.793 26.4429L19.9355 26.9574C20.1418 27.3013 20.4933 27.4248 20.8359 27.4248V26.4248ZM20.793 26.4429C20.7525 26.3755 20.7064 26.2497 20.6811 26.0353L19.688 26.1522C19.7227 26.4469 19.7963 26.7254 19.9355 26.9574L20.793 26.4429ZM20.6828 26.0515C20.6084 25.1742 20.5414 24.1836 20.4817 23.0795L19.4832 23.1334C19.5433 24.2454 19.611 25.2464 19.6864 26.136L20.6828 26.0515ZM20.4817 23.0798C20.4217 21.9548 20.3542 20.8148 20.2792 19.66L19.2813 19.7248C19.3561 20.8759 19.4233 22.012 19.4831 23.1331L20.4817 23.0798ZM20.2796 19.6668C20.2196 18.4964 20.1521 17.3483 20.077 16.2226L19.0792 16.2891C19.1539 17.4095 19.2212 18.5525 19.2809 19.718L20.2796 19.6668ZM20.077 16.223C20.0019 15.081 19.9192 14.0426 19.8287 13.1081L18.8334 13.2044C18.9226 14.1267 19.0046 15.1547 19.0792 16.2887L20.077 16.223ZM19.8288 13.1088C19.7381 12.1566 19.6316 11.3472 19.5082 10.6839L18.525 10.8668C18.6412 11.4913 18.7443 12.2692 18.8333 13.2037L19.8288 13.1088ZM19.5085 10.6859C19.4463 10.3434 19.3759 10.0461 19.2952 9.79991C19.217 9.56107 19.1183 9.33591 18.983 9.16375L18.1967 9.78157C18.2261 9.81903 18.2809 9.91582 18.3449 10.1112C18.4065 10.2992 18.4672 10.5485 18.5247 10.8648L19.5085 10.6859ZM18.0898 9.47266C18.0898 9.61263 18.0986 9.76441 18.1148 9.9267L19.1098 9.8272C19.0961 9.69002 19.0898 9.57227 19.0898 9.47266H18.0898ZM18.1123 9.87695C18.1123 9.87719 18.1123 9.87742 18.1123 9.87766C18.1123 9.87789 18.1123 9.87812 18.1123 9.87836C18.1123 9.87859 18.1123 9.87883 18.1123 9.87906C18.1123 9.8793 18.1123 9.87953 18.1123 9.87977C18.1123 9.88 18.1123 9.88024 18.1123 9.88047C18.1123 9.88071 18.1123 9.88094 18.1123 9.88118C18.1123 9.88141 18.1123 9.88165 18.1123 9.88188C18.1123 9.88212 18.1123 9.88235 18.1123 9.88259C18.1123 9.88283 18.1123 9.88306 18.1123 9.8833C18.1123 9.88353 18.1123 9.88377 18.1123 9.88401C18.1123 9.88424 18.1123 9.88448 18.1123 9.88472C18.1123 9.88495 18.1123 9.88519 18.1123 9.88543C18.1123 9.88566 18.1123 9.8859 18.1123 9.88614C18.1123 9.88637 18.1123 9.88661 18.1123 9.88685C18.1123 9.88708 18.1123 9.88732 18.1123 9.88756C18.1123 9.8878 18.1123 9.88803 18.1123 9.88827C18.1123 9.88851 18.1123 9.88875 18.1123 9.88898C18.1123 9.88922 18.1123 9.88946 18.1123 9.8897C18.1123 9.88994 18.1123 9.89017 18.1123 9.89041C18.1123 9.89065 18.1123 9.89089 18.1123 9.89113C18.1123 9.89137 18.1123 9.89161 18.1123 9.89184C18.1123 9.89208 18.1123 9.89232 18.1123 9.89256C18.1123 9.8928 18.1123 9.89304 18.1123 9.89328C18.1123 9.89352 18.1123 9.89376 18.1123 9.894C18.1123 9.89424 18.1123 9.89448 18.1123 9.89471C18.1123 9.89495 18.1123 9.8952 18.1123 9.89543C18.1123 9.89567 18.1123 9.89591 18.1123 9.89615C18.1123 9.89639 18.1123 9.89664 18.1123 9.89688C18.1123 9.89712 18.1123 9.89736 18.1123 9.8976C18.1123 9.89784 18.1123 9.89808 18.1123 9.89832C18.1123 9.89856 18.1123 9.8988 18.1123 9.89904C18.1123 9.89928 18.1123 9.89952 18.1123 9.89977C18.1123 9.90001 18.1123 9.90025 18.1123 9.90049C18.1123 9.90073 18.1123 9.90097 18.1123 9.90121C18.1123 9.90145 18.1123 9.9017 18.1123 9.90194C18.1123 9.90218 18.1123 9.90242 18.1123 9.90267C18.1123 9.90291 18.1123 9.90315 18.1123 9.90339C18.1123 9.90364 18.1123 9.90388 18.1123 9.90412C18.1123 9.90436 18.1123 9.90461 18.1123 9.90485C18.1123 9.90509 18.1123 9.90533 18.1123 9.90558C18.1123 9.90582 18.1123 9.90606 18.1123 9.90631C18.1123 9.90655 18.1123 9.90679 18.1123 9.90704C18.1123 9.90728 18.1123 9.90752 18.1123 9.90777C18.1123 9.90801 18.1123 9.90826 18.1123 9.9085C18.1123 9.90874 18.1123 9.90899 18.1123 9.90923C18.1123 9.90948 18.1123 9.90972 18.1123 9.90997C18.1123 9.91021 18.1123 9.91046 18.1123 9.9107C18.1123 9.91094 18.1123 9.91119 18.1123 9.91143C18.1123 9.91168 18.1123 9.91192 18.1123 9.91217C18.1123 9.91241 18.1123 9.91266 18.1123 9.9129C18.1123 9.91315 18.1123 9.9134 18.1123 9.91364C18.1123 9.91389 18.1123 9.91413 18.1123 9.91438C18.1123 9.91463 18.1123 9.91487 18.1123 9.91512C18.1123 9.91536 18.1123 9.91561 18.1123 9.91586C18.1123 9.9161 18.1123 9.91635 18.1123 9.9166C18.1123 9.91684 18.1123 9.91709 18.1123 9.91734C18.1123 9.91758 18.1123 9.91783 18.1123 9.91808C18.1123 9.91832 18.1123 9.91857 18.1123 9.91882C18.1123 9.91906 18.1123 9.91931 18.1123 9.91956C18.1123 9.91981 18.1123 9.92005 18.1123 9.9203C18.1123 9.92055 18.1123 9.9208 18.1123 9.92105C18.1123 9.92129 18.1123 9.92154 18.1123 9.92179C18.1123 9.92204 18.1123 9.92229 18.1123 9.92253C18.1123 9.92278 18.1123 9.92303 18.1123 9.92328C18.1123 9.92353 18.1123 9.92378 18.1123 9.92402C18.1123 9.92427 18.1123 9.92452 18.1123 9.92477C18.1123 9.92502 18.1123 9.92527 18.1123 9.92552C18.1123 9.92577 18.1123 9.92602 18.1123 9.92627C18.1123 9.92652 18.1123 9.92677 18.1123 9.92702C18.1123 9.92727 18.1123 9.92752 18.1123 9.92776C18.1123 9.92802 18.1123 9.92827 18.1123 9.92852C18.1123 9.92877 18.1123 9.92902 18.1123 9.92927C18.1123 9.92952 18.1123 9.92977 18.1123 9.93002C18.1123 9.93027 18.1123 9.93052 18.1123 9.93077C18.1123 9.93102 18.1123 9.93127 18.1123 9.93152C18.1123 9.93177 18.1123 9.93203 18.1123 9.93228C18.1123 9.93253 18.1123 9.93278 18.1123 9.93303C18.1123 9.93328 18.1123 9.93353 18.1123 9.93379C18.1123 9.93404 18.1123 9.93429 18.1123 9.93454C18.1123 9.9348 18.1123 9.93505 18.1123 9.9353C18.1123 9.93555 18.1123 9.9358 18.1123 9.93606C18.1123 9.93631 18.1123 9.93656 18.1123 9.93681C18.1123 9.93707 18.1123 9.93732 18.1123 9.93757C18.1123 9.93782 18.1123 9.93808 18.1123 9.93833C18.1123 9.93859 18.1123 9.93884 18.1123 9.93909C18.1123 9.93934 18.1123 9.9396 18.1123 9.93985C18.1123 9.94011 18.1123 9.94036 18.1123 9.94061C18.1123 9.94087 18.1123 9.94112 18.1123 9.94138C18.1123 9.94163 18.1123 9.94188 18.1123 9.94214C18.1123 9.94239 18.1123 9.94265 18.1123 9.9429C18.1123 9.94316 18.1123 9.94341 18.1123 9.94366C18.1123 9.94392 18.1123 9.94417 18.1123 9.94443C18.1123 9.94468 18.1123 9.94494 18.1123 9.94519C18.1123 9.94545 18.1123 9.94571 18.1123 9.94596C18.1123 9.94622 18.1123 9.94647 18.1123 9.94673C18.1123 9.94698 18.1123 9.94724 18.1123 9.94749C18.1123 9.94775 18.1123 9.94801 18.1123 9.94826C18.1123 9.94852 18.1123 9.94877 18.1123 9.94903C18.1123 9.94929 18.1123 9.94954 18.1123 9.9498C18.1123 9.95006 18.1123 9.95031 18.1123 9.95057C18.1123 9.95083 18.1123 9.95108 18.1123 9.95134C18.1123 9.9516 18.1123 9.95186 18.1123 9.95211C18.1123 9.95237 18.1123 9.95263 18.1123 9.95288C18.1123 9.95314 18.1123 9.9534 18.1123 9.95366C18.1123 9.95392 18.1123 9.95417 18.1123 9.95443C18.1123 9.95469 18.1123 9.95495 18.1123 9.95521C18.1123 9.95546 18.1123 9.95572 18.1123 9.95598C18.1123 9.95624 18.1123 9.9565 18.1123 9.95676C18.1123 9.95701 18.1123 9.95727 18.1123 9.95753C18.1123 9.95779 18.1123 9.95805 18.1123 9.95831C18.1123 9.95857 18.1123 9.95883 18.1123 9.95909C18.1123 9.95935 18.1123 9.95961 18.1123 9.95987C18.1123 9.96012 18.1123 9.96038 18.1123 9.96064C18.1123 9.96091 18.1123 9.96116 18.1123 9.96142C18.1123 9.96169 18.1123 9.96194 18.1123 9.9622C18.1123 9.96247 18.1123 9.96272 18.1123 9.96299C18.1123 9.96325 18.1123 9.96351 18.1123 9.96377C18.1123 9.96403 18.1123 9.96429 18.1123 9.96455C18.1123 9.96481 18.1123 9.96507 18.1123 9.96533C18.1123 9.96559 18.1123 9.96585 18.1123 9.96612C18.1123 9.96638 18.1123 9.96664 18.1123 9.9669C18.1123 9.96716 18.1123 9.96742 18.1123 9.96769C18.1123 9.96795 18.1123 9.96821 18.1123 9.96847C18.1123 9.96873 18.1123 9.969 18.1123 9.96926C18.1123 9.96952 18.1123 9.96978 18.1123 9.97005C18.1123 9.97031 18.1123 9.97057 18.1123 9.97083C18.1123 9.9711 18.1123 9.97136 18.1123 9.97162C18.1123 9.97189 18.1123 9.97215 18.1123 9.97241C18.1123 9.97268 18.1123 9.97294 18.1123 9.9732C18.1123 9.97346 18.1123 9.97373 18.1123 9.97399C18.1123 9.97426 18.1123 9.97452 18.1123 9.97478C18.1123 9.97505 18.1123 9.97531 18.1123 9.97558C18.1123 9.97584 18.1123 9.9761 18.1123 9.97637C18.1123 9.97663 18.1123 9.9769 18.1123 9.97716C18.1123 9.97743 18.1123 9.97769 18.1123 9.97796C18.1123 9.97822 18.1123 9.97849 18.1123 9.97875C18.1123 9.97902 18.1123 9.97928 18.1123 9.97955C18.1123 9.97981 18.1123 9.98008 18.1123 9.98034C18.1123 9.98061 18.1123 9.98087 18.1123 9.98114C18.1123 9.98141 18.1123 9.98167 18.1123 9.98194C18.1123 9.9822 18.1123 9.98247 18.1123 9.98273C18.1123 9.983 18.1123 9.98327 18.1123 9.98353C18.1123 9.9838 18.1123 9.98407 18.1123 9.98433C18.1123 9.9846 18.1123 9.98487 18.1123 9.98513C18.1123 9.9854 18.1123 9.98567 18.1123 9.98594C18.1123 9.9862 18.1123 9.98647 18.1123 9.98674C18.1123 9.987 18.1123 9.98727 18.1123 9.98754C18.1123 9.98781 18.1123 9.98807 18.1123 9.98834C18.1123 9.98861 18.1123 9.98888 18.1123 9.98915C18.1123 9.98941 18.1123 9.98968 18.1123 9.98995C18.1123 9.99022 18.1123 9.99049 18.1123 9.99076C18.1123 9.99102 18.1123 9.99129 18.1123 9.99156C18.1123 9.99183 18.1123 9.9921 18.1123 9.99237C18.1123 9.99264 18.1123 9.9929 18.1123 9.99317C18.1123 9.99344 18.1123 9.99371 18.1123 9.99398C18.1123 9.99425 18.1123 9.99452 18.1123 9.99479C18.1123 9.99506 18.1123 9.99533 18.1123 9.9956C18.1123 9.99587 18.1123 9.99614 18.1123 9.99641C18.1123 9.99668 18.1123 9.99695 18.1123 9.99722C18.1123 9.99749 18.1123 9.99776 18.1123 9.99803C18.1123 9.9983 18.1123 9.99857 18.1123 9.99884C18.1123 9.99911 18.1123 9.99939 18.1123 9.99966C18.1123 9.99993 18.1123 10.0002 18.1123 10.0005C18.1123 10.0007 18.1123 10.001 18.1123 10.0013C18.1123 10.0016 18.1123 10.0018 18.1123 10.0021C18.1123 10.0024 18.1123 10.0026 18.1123 10.0029C18.1123 10.0032 18.1123 10.0035 18.1123 10.0037C18.1123 10.004 18.1123 10.0043 18.1123 10.0045C18.1123 10.0048 18.1123 10.0051 18.1123 10.0054C18.1123 10.0056 18.1123 10.0059 18.1123 10.0062C18.1123 10.0065 18.1123 10.0067 18.1123 10.007C18.1123 10.0073 18.1123 10.0075 18.1123 10.0078C18.1123 10.0081 18.1123 10.0084 18.1123 10.0086C18.1123 10.0089 18.1123 10.0092 18.1123 10.0095C18.1123 10.0097 18.1123 10.01 18.1123 10.0103C18.1123 10.0106 18.1123 10.0108 18.1123 10.0111C18.1123 10.0114 18.1123 10.0117 18.1123 10.0119C18.1123 10.0122 18.1123 10.0125 18.1123 10.0128C18.1123 10.013 18.1123 10.0133 18.1123 10.0136C18.1123 10.0138 18.1123 10.0141 18.1123 10.0144C18.1123 10.0147 18.1123 10.0149 18.1123 10.0152C18.1123 10.0155 18.1123 10.0158 18.1123 10.0161C18.1123 10.0163 18.1123 10.0166 18.1123 10.0169C18.1123 10.0172 18.1123 10.0174 18.1123 10.0177C18.1123 10.018 18.1123 10.0183 18.1123 10.0185C18.1123 10.0188 18.1123 10.0191 18.1123 10.0194C18.1123 10.0196 18.1123 10.0199 18.1123 10.0202C18.1123 10.0205 18.1123 10.0207 18.1123 10.021C18.1123 10.0213 18.1123 10.0216 18.1123 10.0219C18.1123 10.0221 18.1123 10.0224 18.1123 10.0227C18.1123 10.023 18.1123 10.0232 18.1123 10.0235C18.1123 10.0238 18.1123 10.0241 18.1123 10.0244C18.1123 10.0246 18.1123 10.0249 18.1123 10.0252C18.1123 10.0255 18.1123 10.0257 18.1123 10.026C18.1123 10.0263 18.1123 10.0266 18.1123 10.0269C18.1123 10.0271 18.1123 10.0274 18.1123 10.0277C18.1123 10.028 18.1123 10.0282 18.1123 10.0285C18.1123 10.0288 18.1123 10.0291 18.1123 10.0294C18.1123 10.0296 18.1123 10.0299 18.1123 10.0302C18.1123 10.0305 18.1123 10.0308 18.1123 10.031C18.1123 10.0313 18.1123 10.0316 18.1123 10.0319C18.1123 10.0322 18.1123 10.0324 18.1123 10.0327C18.1123 10.033 18.1123 10.0333 18.1123 10.0336C18.1123 10.0338 18.1123 10.0341 18.1123 10.0344C18.1123 10.0347 18.1123 10.035 18.1123 10.0352C18.1123 10.0355 18.1123 10.0358 18.1123 10.0361C18.1123 10.0364 18.1123 10.0367 18.1123 10.0369C18.1123 10.0372 18.1123 10.0375 18.1123 10.0378C18.1123 10.0381 18.1123 10.0383 18.1123 10.0386C18.1123 10.0389 18.1123 10.0392 18.1123 10.0395C18.1123 10.0397 18.1123 10.04 18.1123 10.0403C18.1123 10.0406 18.1123 10.0409 18.1123 10.0412C18.1123 10.0414 18.1123 10.0417 18.1123 10.042C18.1123 10.0423 18.1123 10.0426 18.1123 10.0429C18.1123 10.0431 18.1123 10.0434 18.1123 10.0437C18.1123 10.044 18.1123 10.0443 18.1123 10.0446C18.1123 10.0448 18.1123 10.0451 18.1123 10.0454C18.1123 10.0457 18.1123 10.046 18.1123 10.0463C18.1123 10.0465 18.1123 10.0468 18.1123 10.0471C18.1123 10.0474 18.1123 10.0477 18.1123 10.048C18.1123 10.0482 18.1123 10.0485 18.1123 10.0488C18.1123 10.0491 18.1123 10.0494 18.1123 10.0497C18.1123 10.05 18.1123 10.0502 18.1123 10.0505C18.1123 10.0508 18.1123 10.0511 18.1123 10.0514C18.1123 10.0517 18.1123 10.0519 18.1123 10.0522C18.1123 10.0525 18.1123 10.0528 18.1123 10.0531C18.1123 10.0534 18.1123 10.0537 18.1123 10.0539C18.1123 10.0542 18.1123 10.0545 18.1123 10.0548C18.1123 10.0551 18.1123 10.0554 18.1123 10.0557C18.1123 10.0559 18.1123 10.0562 18.1123 10.0565C18.1123 10.0568 18.1123 10.0571 18.1123 10.0574C18.1123 10.0577 18.1123 10.058 18.1123 10.0582C18.1123 10.0585 18.1123 10.0588 18.1123 10.0591C18.1123 10.0594 18.1123 10.0597 18.1123 10.06C18.1123 10.0603 18.1123 10.0605 18.1123 10.0608C18.1123 10.0611 18.1123 10.0614 18.1123 10.0617C18.1123 10.062 18.1123 10.0623 18.1123 10.0626C18.1123 10.0628 18.1123 10.0631 18.1123 10.0634C18.1123 10.0637 18.1123 10.064 18.1123 10.0643C18.1123 10.0646 18.1123 10.0649 18.1123 10.0652C18.1123 10.0654 18.1123 10.0657 18.1123 10.066C18.1123 10.0663 18.1123 10.0666 18.1123 10.0669C18.1123 10.0672 18.1123 10.0675 18.1123 10.0678C18.1123 10.068 18.1123 10.0683 18.1123 10.0686C18.1123 10.0689 18.1123 10.0692 18.1123 10.0695C18.1123 10.0698 18.1123 10.0701 18.1123 10.0704C18.1123 10.0707 18.1123 10.0709 18.1123 10.0712C18.1123 10.0715 18.1123 10.0718 18.1123 10.0721C18.1123 10.0724 18.1123 10.0727 18.1123 10.073C18.1123 10.0733 18.1123 10.0736 18.1123 10.0738C18.1123 10.0741 18.1123 10.0744 18.1123 10.0747C18.1123 10.075 18.1123 10.0753 18.1123 10.0756C18.1123 10.0759 18.1123 10.0762 18.1123 10.0765C18.1123 10.0768 18.1123 10.0771 18.1123 10.0773C18.1123 10.0776 18.1123 10.0779 18.1123 10.0782C18.1123 10.0785 18.1123 10.0788 18.1123 10.0791C18.1123 10.0794 18.1123 10.0797 18.1123 10.08C18.1123 10.0803 18.1123 10.0806 18.1123 10.0809C18.1123 10.0812 18.1123 10.0814 18.1123 10.0817C18.1123 10.082 18.1123 10.0823 18.1123 10.0826C18.1123 10.0829 18.1123 10.0832 18.1123 10.0835C18.1123 10.0838 18.1123 10.0841 18.1123 10.0844C18.1123 10.0847 18.1123 10.085 18.1123 10.0853C18.1123 10.0856 18.1123 10.0858 18.1123 10.0861C18.1123 10.0864 18.1123 10.0867 18.1123 10.087C18.1123 10.0873 18.1123 10.0876 18.1123 10.0879C18.1123 10.0882 18.1123 10.0885 18.1123 10.0888C18.1123 10.0891 18.1123 10.0894 18.1123 10.0897C18.1123 10.09 18.1123 10.0903 18.1123 10.0906C18.1123 10.0909 18.1123 10.0912 18.1123 10.0915C18.1123 10.0917 18.1123 10.092 18.1123 10.0923C18.1123 10.0926 18.1123 10.0929 18.1123 10.0932C18.1123 10.0935 18.1123 10.0938 18.1123 10.0941C18.1123 10.0944 18.1123 10.0947 18.1123 10.095C18.1123 10.0953 18.1123 10.0956 18.1123 10.0959C18.1123 10.0962 18.1123 10.0965 18.1123 10.0968C18.1123 10.0971 18.1123 10.0974 18.1123 10.0977C18.1123 10.098 18.1123 10.0983 18.1123 10.0986C18.1123 10.0989 18.1123 10.0992 18.1123 10.0995C18.1123 10.0998 18.1123 10.1001 18.1123 10.1004C18.1123 10.1007 18.1123 10.101 18.1123 10.1012C18.1123 10.1015 18.1123 10.1018 18.1123 10.1021C18.1123 10.1024 18.1123 10.1027 18.1123 10.103C18.1123 10.1033 18.1123 10.1036 18.1123 10.1039C18.1123 10.1042 18.1123 10.1045 18.1123 10.1048C18.1123 10.1051 18.1123 10.1054 18.1123 10.1057C18.1123 10.106 18.1123 10.1063 18.1123 10.1066C18.1123 10.1069 18.1123 10.1072 18.1123 10.1075C18.1123 10.1078 18.1123 10.1081 18.1123 10.1084C18.1123 10.1087 18.1123 10.109 18.1123 10.1093C18.1123 10.1096 18.1123 10.1099 18.1123 10.1102C18.1123 10.1105 18.1123 10.1108 18.1123 10.1111C18.1123 10.1114 18.1123 10.1117 18.1123 10.112C18.1123 10.1123 18.1123 10.1126 18.1123 10.1129C18.1123 10.1132 18.1123 10.1135 18.1123 10.1138C18.1123 10.1141 18.1123 10.1144 18.1123 10.1147C18.1123 10.115 18.1123 10.1153 18.1123 10.1157C18.1123 10.116 18.1123 10.1163 18.1123 10.1166C18.1123 10.1169 18.1123 10.1172 18.1123 10.1175C18.1123 10.1178 18.1123 10.1181 18.1123 10.1184C18.1123 10.1187 18.1123 10.119 18.1123 10.1193C18.1123 10.1196 18.1123 10.1199 18.1123 10.1202C18.1123 10.1205 18.1123 10.1208 18.1123 10.1211C18.1123 10.1214 18.1123 10.1217 18.1123 10.122C18.1123 10.1223 18.1123 10.1226 18.1123 10.1229C18.1123 10.1232 18.1123 10.1235 18.1123 10.1238C18.1123 10.1241 18.1123 10.1244 18.1123 10.1247C18.1123 10.125 18.1123 10.1253 18.1123 10.1257C18.1123 10.126 18.1123 10.1263 18.1123 10.1266C18.1123 10.1269 18.1123 10.1272 18.1123 10.1275C18.1123 10.1278 18.1123 10.1281 18.1123 10.1284C18.1123 10.1287 18.1123 10.129 18.1123 10.1293C18.1123 10.1296 18.1123 10.1299 18.1123 10.1302C18.1123 10.1305 18.1123 10.1308 18.1123 10.1311C18.1123 10.1314 18.1123 10.1318 18.1123 10.1321C18.1123 10.1324 18.1123 10.1327 18.1123 10.133C18.1123 10.1333 18.1123 10.1336 18.1123 10.1339C18.1123 10.1342 18.1123 10.1345 18.1123 10.1348C18.1123 10.1351 18.1123 10.1354 18.1123 10.1357C18.1123 10.136 18.1123 10.1364 18.1123 10.1367C18.1123 10.137 18.1123 10.1373 18.1123 10.1376C18.1123 10.1379 18.1123 10.1382 18.1123 10.1385C18.1123 10.1388 18.1123 10.1391 18.1123 10.1394C18.1123 10.1397 18.1123 10.14 18.1123 10.1403C18.1123 10.1407 18.1123 10.141 18.1123 10.1413C18.1123 10.1416 18.1123 10.1419 18.1123 10.1422C18.1123 10.1425 18.1123 10.1428 18.1123 10.1431C18.1123 10.1434 18.1123 10.1437 18.1123 10.1441C18.1123 10.1444 18.1123 10.1447 18.1123 10.145C18.1123 10.1453 18.1123 10.1456 18.1123 10.1459C18.1123 10.1462 18.1123 10.1465 18.1123 10.1468C18.1123 10.1471 18.1123 10.1475 18.1123 10.1478C18.1123 10.1481 18.1123 10.1484 18.1123 10.1487C18.1123 10.149 18.1123 10.1493 18.1123 10.1496C18.1123 10.1499 18.1123 10.1502 18.1123 10.1506C18.1123 10.1509 18.1123 10.1512 18.1123 10.1515C18.1123 10.1518 18.1123 10.1521 18.1123 10.1524C18.1123 10.1527 18.1123 10.153 18.1123 10.1534C18.1123 10.1537 18.1123 10.154 18.1123 10.1543C18.1123 10.1546 18.1123 10.1549 18.1123 10.1552C18.1123 10.1555 18.1123 10.1558 18.1123 10.1562C18.1123 10.1565 18.1123 10.1568 18.1123 10.1571C18.1123 10.1574 18.1123 10.1577 18.1123 10.158C18.1123 10.1583 18.1123 10.1587 18.1123 10.159C18.1123 10.1593 18.1123 10.1596 18.1123 10.1599C18.1123 10.1602 18.1123 10.1605 18.1123 10.1608C18.1123 10.1612 18.1123 10.1615 18.1123 10.1618C18.1123 10.1621 18.1123 10.1624 18.1123 10.1627C18.1123 10.163 18.1123 10.1633 18.1123 10.1637C18.1123 10.164 18.1123 10.1643 18.1123 10.1646C18.1123 10.1649 18.1123 10.1652 18.1123 10.1655C18.1123 10.1659 18.1123 10.1662 18.1123 10.1665C18.1123 10.1668 18.1123 10.1671 18.1123 10.1674C18.1123 10.1677 18.1123 10.1681 18.1123 10.1684C18.1123 10.1687 18.1123 10.169 18.1123 10.1693C18.1123 10.1696 18.1123 10.17 18.1123 10.1703C18.1123 10.1706 18.1123 10.1709 18.1123 10.1712C18.1123 10.1715 18.1123 10.1718 18.1123 10.1722C18.1123 10.1725 18.1123 10.1728 18.1123 10.1731C18.1123 10.1734 18.1123 10.1737 18.1123 10.1741C18.1123 10.1744 18.1123 10.1747 18.1123 10.175C18.1123 10.1753 18.1123 10.1756 18.1123 10.176C18.1123 10.1763 18.1123 10.1766 18.1123 10.1769C18.1123 10.1772 18.1123 10.1775 18.1123 10.1779C18.1123 10.1782 18.1123 10.1785 18.1123 10.1788C18.1123 10.1791 18.1123 10.1794 18.1123 10.1798C18.1123 10.1801 18.1123 10.1804 18.1123 10.1807C18.1123 10.181 18.1123 10.1813 18.1123 10.1817C18.1123 10.182 18.1123 10.1823 18.1123 10.1826C18.1123 10.1829 18.1123 10.1833 18.1123 10.1836C18.1123 10.1839 18.1123 10.1842 18.1123 10.1845C18.1123 10.1849 18.1123 10.1852 18.1123 10.1855C18.1123 10.1858 18.1123 10.1861 18.1123 10.1864C18.1123 10.1868 18.1123 10.1871 18.1123 10.1874C18.1123 10.1877 18.1123 10.188 18.1123 10.1884C18.1123 10.1887 18.1123 10.189 18.1123 10.1893C18.1123 10.1896 18.1123 10.19 18.1123 10.1903C18.1123 10.1906 18.1123 10.1909 18.1123 10.1912C18.1123 10.1916 18.1123 10.1919 18.1123 10.1922C18.1123 10.1925 18.1123 10.1928 18.1123 10.1932C18.1123 10.1935 18.1123 10.1938 18.1123 10.1941C18.1123 10.1945 18.1123 10.1948 18.1123 10.1951C18.1123 10.1954 18.1123 10.1957 18.1123 10.1961C18.1123 10.1964 18.1123 10.1967 18.1123 10.197C18.1123 10.1973 18.1123 10.1977 18.1123 10.198C18.1123 10.1983 18.1123 10.1986 18.1123 10.199C18.1123 10.1993 18.1123 10.1996 18.1123 10.1999C18.1123 10.2002 18.1123 10.2006 18.1123 10.2009C18.1123 10.2012 18.1123 10.2015 18.1123 10.2019C18.1123 10.2022 18.1123 10.2025 18.1123 10.2028C18.1123 10.2031 18.1123 10.2035 18.1123 10.2038C18.1123 10.2041 18.1123 10.2044 18.1123 10.2048C18.1123 10.2051 18.1123 10.2054 18.1123 10.2057C18.1123 10.2061 18.1123 10.2064 18.1123 10.2067C18.1123 10.207 18.1123 10.2074 18.1123 10.2077C18.1123 10.208 18.1123 10.2083 18.1123 10.2087C18.1123 10.209 18.1123 10.2093 18.1123 10.2096C18.1123 10.21 18.1123 10.2103 18.1123 10.2106C18.1123 10.2109 18.1123 10.2113 18.1123 10.2116C18.1123 10.2119 18.1123 10.2122 18.1123 10.2126C18.1123 10.2129 18.1123 10.2132 18.1123 10.2135C18.1123 10.2139 18.1123 10.2142 18.1123 10.2145C18.1123 10.2148 18.1123 10.2152 18.1123 10.2155C18.1123 10.2158 18.1123 10.2161 18.1123 10.2165C18.1123 10.2168 18.1123 10.2171 18.1123 10.2174C18.1123 10.2178 18.1123 10.2181 18.1123 10.2184C18.1123 10.2187 18.1123 10.2191 18.1123 10.2194C18.1123 10.2197 18.1123 10.2201 18.1123 10.2204C18.1123 10.2207 18.1123 10.221 18.1123 10.2214C18.1123 10.2217 18.1123 10.222 18.1123 10.2223C18.1123 10.2227 18.1123 10.223 18.1123 10.2233C18.1123 10.2237 18.1123 10.224 18.1123 10.2243C18.1123 10.2246 18.1123 10.225 18.1123 10.2253C18.1123 10.2256 18.1123 10.226 18.1123 10.2263C18.1123 10.2266 18.1123 10.2269 18.1123 10.2273C18.1123 10.2276 18.1123 10.2279 18.1123 10.2283C18.1123 10.2286 18.1123 10.2289 18.1123 10.2292C18.1123 10.2296 18.1123 10.2299 18.1123 10.2302C18.1123 10.2306 18.1123 10.2309 18.1123 10.2312C18.1123 10.2316 18.1123 10.2319 18.1123 10.2322C18.1123 10.2325 18.1123 10.2329 18.1123 10.2332C18.1123 10.2335 18.1123 10.2339 18.1123 10.2342C18.1123 10.2345 18.1123 10.2349 18.1123 10.2352C18.1123 10.2355 18.1123 10.2358 18.1123 10.2362C18.1123 10.2365 18.1123 10.2368 18.1123 10.2372C18.1123 10.2375 18.1123 10.2378 18.1123 10.2382C18.1123 10.2385 18.1123 10.2388 18.1123 10.2392C18.1123 10.2395 18.1123 10.2398 18.1123 10.2402C18.1123 10.2405 18.1123 10.2408 18.1123 10.2411C18.1123 10.2415 18.1123 10.2418 18.1123 10.2421C18.1123 10.2425 18.1123 10.2428 18.1123 10.2431C18.1123 10.2435 18.1123 10.2438 18.1123 10.2441C18.1123 10.2445 18.1123 10.2448 18.1123 10.2451C18.1123 10.2455 18.1123 10.2458 18.1123 10.2461C18.1123 10.2465 18.1123 10.2468 18.1123 10.2471C18.1123 10.2475 18.1123 10.2478 18.1123 10.2481C18.1123 10.2485 18.1123 10.2488 18.1123 10.2491C18.1123 10.2495 18.1123 10.2498 18.1123 10.2501C18.1123 10.2505 18.1123 10.2508 18.1123 10.2511C18.1123 10.2515 18.1123 10.2518 18.1123 10.2521C18.1123 10.2525 18.1123 10.2528 18.1123 10.2531C18.1123 10.2535 18.1123 10.2538 18.1123 10.2542C18.1123 10.2545 18.1123 10.2548 18.1123 10.2552C18.1123 10.2555 18.1123 10.2558 18.1123 10.2562C18.1123 10.2565 18.1123 10.2568 18.1123 10.2572C18.1123 10.2575 18.1123 10.2578 18.1123 10.2582C18.1123 10.2585 18.1123 10.2588 18.1123 10.2592C18.1123 10.2595 18.1123 10.2599 18.1123 10.2602C18.1123 10.2605 18.1123 10.2609 18.1123 10.2612C18.1123 10.2615 18.1123 10.2619 18.1123 10.2622C18.1123 10.2625 18.1123 10.2629 18.1123 10.2632C18.1123 10.2636 18.1123 10.2639 18.1123 10.2642C18.1123 10.2646 18.1123 10.2649 18.1123 10.2652C18.1123 10.2656 18.1123 10.2659 18.1123 10.2663C18.1123 10.2666 18.1123 10.2669 18.1123 10.2673C18.1123 10.2676 18.1123 10.2679 18.1123 10.2683C18.1123 10.2686 18.1123 10.269 18.1123 10.2693C18.1123 10.2696 18.1123 10.27 18.1123 10.2703C18.1123 10.2707 18.1123 10.271 18.1123 10.2713C18.1123 10.2717 18.1123 10.272 18.1123 10.2724C18.1123 10.2727 18.1123 10.273 18.1123 10.2734C18.1123 10.2737 18.1123 10.274 18.1123 10.2744C18.1123 10.2747 18.1123 10.2751 18.1123 10.2754C18.1123 10.2757 18.1123 10.2761 18.1123 10.2764C18.1123 10.2768 18.1123 10.2771 18.1123 10.2774C18.1123 10.2778 18.1123 10.2781 18.1123 10.2785C18.1123 10.2788 18.1123 10.2791 18.1123 10.2795C18.1123 10.2798 18.1123 10.2802 18.1123 10.2805C18.1123 10.2809 18.1123 10.2812 18.1123 10.2815C18.1123 10.2819 18.1123 10.2822 18.1123 10.2826C18.1123 10.2829 18.1123 10.2832 18.1123 10.2836C18.1123 10.2839 18.1123 10.2843 18.1123 10.2846C18.1123 10.2849 18.1123 10.2853 18.1123 10.2856C18.1123 10.286 18.1123 10.2863 18.1123 10.2867C18.1123 10.287 18.1123 10.2873 18.1123 10.2877C18.1123 10.288 18.1123 10.2884 18.1123 10.2887C18.1123 10.2891 18.1123 10.2894 18.1123 10.2897C18.1123 10.2901 18.1123 10.2904 18.1123 10.2908C18.1123 10.2911 18.1123 10.2915 18.1123 10.2918C18.1123 10.2921 18.1123 10.2925 18.1123 10.2928C18.1123 10.2932 18.1123 10.2935 18.1123 10.2939C18.1123 10.2942 18.1123 10.2945 18.1123 10.2949C18.1123 10.2952 18.1123 10.2956 18.1123 10.2959C18.1123 10.2963 18.1123 10.2966 18.1123 10.297C18.1123 10.2973 18.1123 10.2976 18.1123 10.298C18.1123 10.2983 18.1123 10.2987 18.1123 10.299C18.1123 10.2994 18.1123 10.2997 18.1123 10.3001C18.1123 10.3004 18.1123 10.3008 18.1123 10.3011C18.1123 10.3014 18.1123 10.3018 18.1123 10.3021C18.1123 10.3025 18.1123 10.3028 18.1123 10.3032C18.1123 10.3035 18.1123 10.3039 18.1123 10.3042C18.1123 10.3046 18.1123 10.3049 18.1123 10.3053C18.1123 10.3056 18.1123 10.3059 18.1123 10.3063C18.1123 10.3066 18.1123 10.307 18.1123 10.3073C18.1123 10.3077 18.1123 10.308 18.1123 10.3084C18.1123 10.3087 18.1123 10.3091 18.1123 10.3094C18.1123 10.3098 18.1123 10.3101 18.1123 10.3105C18.1123 10.3108 18.1123 10.3112 18.1123 10.3115C18.1123 10.3118 18.1123 10.3122 18.1123 10.3125C18.1123 10.3129 18.1123 10.3132 18.1123 10.3136C18.1123 10.3139 18.1123 10.3143 18.1123 10.3146C18.1123 10.315 18.1123 10.3153 18.1123 10.3157C18.1123 10.316 18.1123 10.3164 18.1123 10.3167C18.1123 10.3171 18.1123 10.3174 18.1123 10.3178C18.1123 10.3181 18.1123 10.3185 18.1123 10.3188C18.1123 10.3192 18.1123 10.3195 18.1123 10.3199C18.1123 10.3202 18.1123 10.3206 18.1123 10.3209C18.1123 10.3213 18.1123 10.3216 18.1123 10.322C18.1123 10.3223 18.1123 10.3227 18.1123 10.323C18.1123 10.3234 18.1123 10.3237 18.1123 10.3241C18.1123 10.3244 18.1123 10.3248 18.1123 10.3251C18.1123 10.3255 18.1123 10.3258 18.1123 10.3262H19.1123C19.1123 10.3258 19.1123 10.3255 19.1123 10.3251C19.1123 10.3248 19.1123 10.3244 19.1123 10.3241C19.1123 10.3237 19.1123 10.3234 19.1123 10.323C19.1123 10.3227 19.1123 10.3223 19.1123 10.322C19.1123 10.3216 19.1123 10.3213 19.1123 10.3209C19.1123 10.3206 19.1123 10.3202 19.1123 10.3199C19.1123 10.3195 19.1123 10.3192 19.1123 10.3188C19.1123 10.3185 19.1123 10.3181 19.1123 10.3178C19.1123 10.3174 19.1123 10.3171 19.1123 10.3167C19.1123 10.3164 19.1123 10.316 19.1123 10.3157C19.1123 10.3153 19.1123 10.315 19.1123 10.3146C19.1123 10.3143 19.1123 10.3139 19.1123 10.3136C19.1123 10.3132 19.1123 10.3129 19.1123 10.3125C19.1123 10.3122 19.1123 10.3118 19.1123 10.3115C19.1123 10.3112 19.1123 10.3108 19.1123 10.3105C19.1123 10.3101 19.1123 10.3098 19.1123 10.3094C19.1123 10.3091 19.1123 10.3087 19.1123 10.3084C19.1123 10.308 19.1123 10.3077 19.1123 10.3073C19.1123 10.307 19.1123 10.3066 19.1123 10.3063C19.1123 10.3059 19.1123 10.3056 19.1123 10.3053C19.1123 10.3049 19.1123 10.3046 19.1123 10.3042C19.1123 10.3039 19.1123 10.3035 19.1123 10.3032C19.1123 10.3028 19.1123 10.3025 19.1123 10.3021C19.1123 10.3018 19.1123 10.3014 19.1123 10.3011C19.1123 10.3008 19.1123 10.3004 19.1123 10.3001C19.1123 10.2997 19.1123 10.2994 19.1123 10.299C19.1123 10.2987 19.1123 10.2983 19.1123 10.298C19.1123 10.2976 19.1123 10.2973 19.1123 10.297C19.1123 10.2966 19.1123 10.2963 19.1123 10.2959C19.1123 10.2956 19.1123 10.2952 19.1123 10.2949C19.1123 10.2945 19.1123 10.2942 19.1123 10.2939C19.1123 10.2935 19.1123 10.2932 19.1123 10.2928C19.1123 10.2925 19.1123 10.2921 19.1123 10.2918C19.1123 10.2915 19.1123 10.2911 19.1123 10.2908C19.1123 10.2904 19.1123 10.2901 19.1123 10.2897C19.1123 10.2894 19.1123 10.2891 19.1123 10.2887C19.1123 10.2884 19.1123 10.288 19.1123 10.2877C19.1123 10.2873 19.1123 10.287 19.1123 10.2867C19.1123 10.2863 19.1123 10.286 19.1123 10.2856C19.1123 10.2853 19.1123 10.2849 19.1123 10.2846C19.1123 10.2843 19.1123 10.2839 19.1123 10.2836C19.1123 10.2832 19.1123 10.2829 19.1123 10.2826C19.1123 10.2822 19.1123 10.2819 19.1123 10.2815C19.1123 10.2812 19.1123 10.2809 19.1123 10.2805C19.1123 10.2802 19.1123 10.2798 19.1123 10.2795C19.1123 10.2791 19.1123 10.2788 19.1123 10.2785C19.1123 10.2781 19.1123 10.2778 19.1123 10.2774C19.1123 10.2771 19.1123 10.2768 19.1123 10.2764C19.1123 10.2761 19.1123 10.2757 19.1123 10.2754C19.1123 10.2751 19.1123 10.2747 19.1123 10.2744C19.1123 10.274 19.1123 10.2737 19.1123 10.2734C19.1123 10.273 19.1123 10.2727 19.1123 10.2724C19.1123 10.272 19.1123 10.2717 19.1123 10.2713C19.1123 10.271 19.1123 10.2707 19.1123 10.2703C19.1123 10.27 19.1123 10.2696 19.1123 10.2693C19.1123 10.269 19.1123 10.2686 19.1123 10.2683C19.1123 10.2679 19.1123 10.2676 19.1123 10.2673C19.1123 10.2669 19.1123 10.2666 19.1123 10.2663C19.1123 10.2659 19.1123 10.2656 19.1123 10.2652C19.1123 10.2649 19.1123 10.2646 19.1123 10.2642C19.1123 10.2639 19.1123 10.2636 19.1123 10.2632C19.1123 10.2629 19.1123 10.2625 19.1123 10.2622C19.1123 10.2619 19.1123 10.2615 19.1123 10.2612C19.1123 10.2609 19.1123 10.2605 19.1123 10.2602C19.1123 10.2599 19.1123 10.2595 19.1123 10.2592C19.1123 10.2588 19.1123 10.2585 19.1123 10.2582C19.1123 10.2578 19.1123 10.2575 19.1123 10.2572C19.1123 10.2568 19.1123 10.2565 19.1123 10.2562C19.1123 10.2558 19.1123 10.2555 19.1123 10.2552C19.1123 10.2548 19.1123 10.2545 19.1123 10.2542C19.1123 10.2538 19.1123 10.2535 19.1123 10.2531C19.1123 10.2528 19.1123 10.2525 19.1123 10.2521C19.1123 10.2518 19.1123 10.2515 19.1123 10.2511C19.1123 10.2508 19.1123 10.2505 19.1123 10.2501C19.1123 10.2498 19.1123 10.2495 19.1123 10.2491C19.1123 10.2488 19.1123 10.2485 19.1123 10.2481C19.1123 10.2478 19.1123 10.2475 19.1123 10.2471C19.1123 10.2468 19.1123 10.2465 19.1123 10.2461C19.1123 10.2458 19.1123 10.2455 19.1123 10.2451C19.1123 10.2448 19.1123 10.2445 19.1123 10.2441C19.1123 10.2438 19.1123 10.2435 19.1123 10.2431C19.1123 10.2428 19.1123 10.2425 19.1123 10.2421C19.1123 10.2418 19.1123 10.2415 19.1123 10.2411C19.1123 10.2408 19.1123 10.2405 19.1123 10.2402C19.1123 10.2398 19.1123 10.2395 19.1123 10.2392C19.1123 10.2388 19.1123 10.2385 19.1123 10.2382C19.1123 10.2378 19.1123 10.2375 19.1123 10.2372C19.1123 10.2368 19.1123 10.2365 19.1123 10.2362C19.1123 10.2358 19.1123 10.2355 19.1123 10.2352C19.1123 10.2349 19.1123 10.2345 19.1123 10.2342C19.1123 10.2339 19.1123 10.2335 19.1123 10.2332C19.1123 10.2329 19.1123 10.2325 19.1123 10.2322C19.1123 10.2319 19.1123 10.2316 19.1123 10.2312C19.1123 10.2309 19.1123 10.2306 19.1123 10.2302C19.1123 10.2299 19.1123 10.2296 19.1123 10.2292C19.1123 10.2289 19.1123 10.2286 19.1123 10.2283C19.1123 10.2279 19.1123 10.2276 19.1123 10.2273C19.1123 10.2269 19.1123 10.2266 19.1123 10.2263C19.1123 10.226 19.1123 10.2256 19.1123 10.2253C19.1123 10.225 19.1123 10.2246 19.1123 10.2243C19.1123 10.224 19.1123 10.2237 19.1123 10.2233C19.1123 10.223 19.1123 10.2227 19.1123 10.2223C19.1123 10.222 19.1123 10.2217 19.1123 10.2214C19.1123 10.221 19.1123 10.2207 19.1123 10.2204C19.1123 10.2201 19.1123 10.2197 19.1123 10.2194C19.1123 10.2191 19.1123 10.2187 19.1123 10.2184C19.1123 10.2181 19.1123 10.2178 19.1123 10.2174C19.1123 10.2171 19.1123 10.2168 19.1123 10.2165C19.1123 10.2161 19.1123 10.2158 19.1123 10.2155C19.1123 10.2152 19.1123 10.2148 19.1123 10.2145C19.1123 10.2142 19.1123 10.2139 19.1123 10.2135C19.1123 10.2132 19.1123 10.2129 19.1123 10.2126C19.1123 10.2122 19.1123 10.2119 19.1123 10.2116C19.1123 10.2113 19.1123 10.2109 19.1123 10.2106C19.1123 10.2103 19.1123 10.21 19.1123 10.2096C19.1123 10.2093 19.1123 10.209 19.1123 10.2087C19.1123 10.2083 19.1123 10.208 19.1123 10.2077C19.1123 10.2074 19.1123 10.207 19.1123 10.2067C19.1123 10.2064 19.1123 10.2061 19.1123 10.2057C19.1123 10.2054 19.1123 10.2051 19.1123 10.2048C19.1123 10.2044 19.1123 10.2041 19.1123 10.2038C19.1123 10.2035 19.1123 10.2031 19.1123 10.2028C19.1123 10.2025 19.1123 10.2022 19.1123 10.2019C19.1123 10.2015 19.1123 10.2012 19.1123 10.2009C19.1123 10.2006 19.1123 10.2002 19.1123 10.1999C19.1123 10.1996 19.1123 10.1993 19.1123 10.199C19.1123 10.1986 19.1123 10.1983 19.1123 10.198C19.1123 10.1977 19.1123 10.1973 19.1123 10.197C19.1123 10.1967 19.1123 10.1964 19.1123 10.1961C19.1123 10.1957 19.1123 10.1954 19.1123 10.1951C19.1123 10.1948 19.1123 10.1945 19.1123 10.1941C19.1123 10.1938 19.1123 10.1935 19.1123 10.1932C19.1123 10.1928 19.1123 10.1925 19.1123 10.1922C19.1123 10.1919 19.1123 10.1916 19.1123 10.1912C19.1123 10.1909 19.1123 10.1906 19.1123 10.1903C19.1123 10.19 19.1123 10.1896 19.1123 10.1893C19.1123 10.189 19.1123 10.1887 19.1123 10.1884C19.1123 10.188 19.1123 10.1877 19.1123 10.1874C19.1123 10.1871 19.1123 10.1868 19.1123 10.1864C19.1123 10.1861 19.1123 10.1858 19.1123 10.1855C19.1123 10.1852 19.1123 10.1849 19.1123 10.1845C19.1123 10.1842 19.1123 10.1839 19.1123 10.1836C19.1123 10.1833 19.1123 10.1829 19.1123 10.1826C19.1123 10.1823 19.1123 10.182 19.1123 10.1817C19.1123 10.1813 19.1123 10.181 19.1123 10.1807C19.1123 10.1804 19.1123 10.1801 19.1123 10.1798C19.1123 10.1794 19.1123 10.1791 19.1123 10.1788C19.1123 10.1785 19.1123 10.1782 19.1123 10.1779C19.1123 10.1775 19.1123 10.1772 19.1123 10.1769C19.1123 10.1766 19.1123 10.1763 19.1123 10.176C19.1123 10.1756 19.1123 10.1753 19.1123 10.175C19.1123 10.1747 19.1123 10.1744 19.1123 10.1741C19.1123 10.1737 19.1123 10.1734 19.1123 10.1731C19.1123 10.1728 19.1123 10.1725 19.1123 10.1722C19.1123 10.1718 19.1123 10.1715 19.1123 10.1712C19.1123 10.1709 19.1123 10.1706 19.1123 10.1703C19.1123 10.17 19.1123 10.1696 19.1123 10.1693C19.1123 10.169 19.1123 10.1687 19.1123 10.1684C19.1123 10.1681 19.1123 10.1677 19.1123 10.1674C19.1123 10.1671 19.1123 10.1668 19.1123 10.1665C19.1123 10.1662 19.1123 10.1659 19.1123 10.1655C19.1123 10.1652 19.1123 10.1649 19.1123 10.1646C19.1123 10.1643 19.1123 10.164 19.1123 10.1637C19.1123 10.1633 19.1123 10.163 19.1123 10.1627C19.1123 10.1624 19.1123 10.1621 19.1123 10.1618C19.1123 10.1615 19.1123 10.1612 19.1123 10.1608C19.1123 10.1605 19.1123 10.1602 19.1123 10.1599C19.1123 10.1596 19.1123 10.1593 19.1123 10.159C19.1123 10.1587 19.1123 10.1583 19.1123 10.158C19.1123 10.1577 19.1123 10.1574 19.1123 10.1571C19.1123 10.1568 19.1123 10.1565 19.1123 10.1562C19.1123 10.1558 19.1123 10.1555 19.1123 10.1552C19.1123 10.1549 19.1123 10.1546 19.1123 10.1543C19.1123 10.154 19.1123 10.1537 19.1123 10.1534C19.1123 10.153 19.1123 10.1527 19.1123 10.1524C19.1123 10.1521 19.1123 10.1518 19.1123 10.1515C19.1123 10.1512 19.1123 10.1509 19.1123 10.1506C19.1123 10.1502 19.1123 10.1499 19.1123 10.1496C19.1123 10.1493 19.1123 10.149 19.1123 10.1487C19.1123 10.1484 19.1123 10.1481 19.1123 10.1478C19.1123 10.1475 19.1123 10.1471 19.1123 10.1468C19.1123 10.1465 19.1123 10.1462 19.1123 10.1459C19.1123 10.1456 19.1123 10.1453 19.1123 10.145C19.1123 10.1447 19.1123 10.1444 19.1123 10.1441C19.1123 10.1437 19.1123 10.1434 19.1123 10.1431C19.1123 10.1428 19.1123 10.1425 19.1123 10.1422C19.1123 10.1419 19.1123 10.1416 19.1123 10.1413C19.1123 10.141 19.1123 10.1407 19.1123 10.1403C19.1123 10.14 19.1123 10.1397 19.1123 10.1394C19.1123 10.1391 19.1123 10.1388 19.1123 10.1385C19.1123 10.1382 19.1123 10.1379 19.1123 10.1376C19.1123 10.1373 19.1123 10.137 19.1123 10.1367C19.1123 10.1364 19.1123 10.136 19.1123 10.1357C19.1123 10.1354 19.1123 10.1351 19.1123 10.1348C19.1123 10.1345 19.1123 10.1342 19.1123 10.1339C19.1123 10.1336 19.1123 10.1333 19.1123 10.133C19.1123 10.1327 19.1123 10.1324 19.1123 10.1321C19.1123 10.1318 19.1123 10.1314 19.1123 10.1311C19.1123 10.1308 19.1123 10.1305 19.1123 10.1302C19.1123 10.1299 19.1123 10.1296 19.1123 10.1293C19.1123 10.129 19.1123 10.1287 19.1123 10.1284C19.1123 10.1281 19.1123 10.1278 19.1123 10.1275C19.1123 10.1272 19.1123 10.1269 19.1123 10.1266C19.1123 10.1263 19.1123 10.126 19.1123 10.1257C19.1123 10.1253 19.1123 10.125 19.1123 10.1247C19.1123 10.1244 19.1123 10.1241 19.1123 10.1238C19.1123 10.1235 19.1123 10.1232 19.1123 10.1229C19.1123 10.1226 19.1123 10.1223 19.1123 10.122C19.1123 10.1217 19.1123 10.1214 19.1123 10.1211C19.1123 10.1208 19.1123 10.1205 19.1123 10.1202C19.1123 10.1199 19.1123 10.1196 19.1123 10.1193C19.1123 10.119 19.1123 10.1187 19.1123 10.1184C19.1123 10.1181 19.1123 10.1178 19.1123 10.1175C19.1123 10.1172 19.1123 10.1169 19.1123 10.1166C19.1123 10.1163 19.1123 10.116 19.1123 10.1157C19.1123 10.1153 19.1123 10.115 19.1123 10.1147C19.1123 10.1144 19.1123 10.1141 19.1123 10.1138C19.1123 10.1135 19.1123 10.1132 19.1123 10.1129C19.1123 10.1126 19.1123 10.1123 19.1123 10.112C19.1123 10.1117 19.1123 10.1114 19.1123 10.1111C19.1123 10.1108 19.1123 10.1105 19.1123 10.1102C19.1123 10.1099 19.1123 10.1096 19.1123 10.1093C19.1123 10.109 19.1123 10.1087 19.1123 10.1084C19.1123 10.1081 19.1123 10.1078 19.1123 10.1075C19.1123 10.1072 19.1123 10.1069 19.1123 10.1066C19.1123 10.1063 19.1123 10.106 19.1123 10.1057C19.1123 10.1054 19.1123 10.1051 19.1123 10.1048C19.1123 10.1045 19.1123 10.1042 19.1123 10.1039C19.1123 10.1036 19.1123 10.1033 19.1123 10.103C19.1123 10.1027 19.1123 10.1024 19.1123 10.1021C19.1123 10.1018 19.1123 10.1015 19.1123 10.1012C19.1123 10.101 19.1123 10.1007 19.1123 10.1004C19.1123 10.1001 19.1123 10.0998 19.1123 10.0995C19.1123 10.0992 19.1123 10.0989 19.1123 10.0986C19.1123 10.0983 19.1123 10.098 19.1123 10.0977C19.1123 10.0974 19.1123 10.0971 19.1123 10.0968C19.1123 10.0965 19.1123 10.0962 19.1123 10.0959C19.1123 10.0956 19.1123 10.0953 19.1123 10.095C19.1123 10.0947 19.1123 10.0944 19.1123 10.0941C19.1123 10.0938 19.1123 10.0935 19.1123 10.0932C19.1123 10.0929 19.1123 10.0926 19.1123 10.0923C19.1123 10.092 19.1123 10.0917 19.1123 10.0915C19.1123 10.0912 19.1123 10.0909 19.1123 10.0906C19.1123 10.0903 19.1123 10.09 19.1123 10.0897C19.1123 10.0894 19.1123 10.0891 19.1123 10.0888C19.1123 10.0885 19.1123 10.0882 19.1123 10.0879C19.1123 10.0876 19.1123 10.0873 19.1123 10.087C19.1123 10.0867 19.1123 10.0864 19.1123 10.0861C19.1123 10.0858 19.1123 10.0856 19.1123 10.0853C19.1123 10.085 19.1123 10.0847 19.1123 10.0844C19.1123 10.0841 19.1123 10.0838 19.1123 10.0835C19.1123 10.0832 19.1123 10.0829 19.1123 10.0826C19.1123 10.0823 19.1123 10.082 19.1123 10.0817C19.1123 10.0814 19.1123 10.0812 19.1123 10.0809C19.1123 10.0806 19.1123 10.0803 19.1123 10.08C19.1123 10.0797 19.1123 10.0794 19.1123 10.0791C19.1123 10.0788 19.1123 10.0785 19.1123 10.0782C19.1123 10.0779 19.1123 10.0776 19.1123 10.0773C19.1123 10.0771 19.1123 10.0768 19.1123 10.0765C19.1123 10.0762 19.1123 10.0759 19.1123 10.0756C19.1123 10.0753 19.1123 10.075 19.1123 10.0747C19.1123 10.0744 19.1123 10.0741 19.1123 10.0738C19.1123 10.0736 19.1123 10.0733 19.1123 10.073C19.1123 10.0727 19.1123 10.0724 19.1123 10.0721C19.1123 10.0718 19.1123 10.0715 19.1123 10.0712C19.1123 10.0709 19.1123 10.0707 19.1123 10.0704C19.1123 10.0701 19.1123 10.0698 19.1123 10.0695C19.1123 10.0692 19.1123 10.0689 19.1123 10.0686C19.1123 10.0683 19.1123 10.068 19.1123 10.0678C19.1123 10.0675 19.1123 10.0672 19.1123 10.0669C19.1123 10.0666 19.1123 10.0663 19.1123 10.066C19.1123 10.0657 19.1123 10.0654 19.1123 10.0652C19.1123 10.0649 19.1123 10.0646 19.1123 10.0643C19.1123 10.064 19.1123 10.0637 19.1123 10.0634C19.1123 10.0631 19.1123 10.0628 19.1123 10.0626C19.1123 10.0623 19.1123 10.062 19.1123 10.0617C19.1123 10.0614 19.1123 10.0611 19.1123 10.0608C19.1123 10.0605 19.1123 10.0603 19.1123 10.06C19.1123 10.0597 19.1123 10.0594 19.1123 10.0591C19.1123 10.0588 19.1123 10.0585 19.1123 10.0582C19.1123 10.058 19.1123 10.0577 19.1123 10.0574C19.1123 10.0571 19.1123 10.0568 19.1123 10.0565C19.1123 10.0562 19.1123 10.0559 19.1123 10.0557C19.1123 10.0554 19.1123 10.0551 19.1123 10.0548C19.1123 10.0545 19.1123 10.0542 19.1123 10.0539C19.1123 10.0537 19.1123 10.0534 19.1123 10.0531C19.1123 10.0528 19.1123 10.0525 19.1123 10.0522C19.1123 10.0519 19.1123 10.0517 19.1123 10.0514C19.1123 10.0511 19.1123 10.0508 19.1123 10.0505C19.1123 10.0502 19.1123 10.05 19.1123 10.0497C19.1123 10.0494 19.1123 10.0491 19.1123 10.0488C19.1123 10.0485 19.1123 10.0482 19.1123 10.048C19.1123 10.0477 19.1123 10.0474 19.1123 10.0471C19.1123 10.0468 19.1123 10.0465 19.1123 10.0463C19.1123 10.046 19.1123 10.0457 19.1123 10.0454C19.1123 10.0451 19.1123 10.0448 19.1123 10.0446C19.1123 10.0443 19.1123 10.044 19.1123 10.0437C19.1123 10.0434 19.1123 10.0431 19.1123 10.0429C19.1123 10.0426 19.1123 10.0423 19.1123 10.042C19.1123 10.0417 19.1123 10.0414 19.1123 10.0412C19.1123 10.0409 19.1123 10.0406 19.1123 10.0403C19.1123 10.04 19.1123 10.0397 19.1123 10.0395C19.1123 10.0392 19.1123 10.0389 19.1123 10.0386C19.1123 10.0383 19.1123 10.0381 19.1123 10.0378C19.1123 10.0375 19.1123 10.0372 19.1123 10.0369C19.1123 10.0367 19.1123 10.0364 19.1123 10.0361C19.1123 10.0358 19.1123 10.0355 19.1123 10.0352C19.1123 10.035 19.1123 10.0347 19.1123 10.0344C19.1123 10.0341 19.1123 10.0338 19.1123 10.0336C19.1123 10.0333 19.1123 10.033 19.1123 10.0327C19.1123 10.0324 19.1123 10.0322 19.1123 10.0319C19.1123 10.0316 19.1123 10.0313 19.1123 10.031C19.1123 10.0308 19.1123 10.0305 19.1123 10.0302C19.1123 10.0299 19.1123 10.0296 19.1123 10.0294C19.1123 10.0291 19.1123 10.0288 19.1123 10.0285C19.1123 10.0282 19.1123 10.028 19.1123 10.0277C19.1123 10.0274 19.1123 10.0271 19.1123 10.0269C19.1123 10.0266 19.1123 10.0263 19.1123 10.026C19.1123 10.0257 19.1123 10.0255 19.1123 10.0252C19.1123 10.0249 19.1123 10.0246 19.1123 10.0244C19.1123 10.0241 19.1123 10.0238 19.1123 10.0235C19.1123 10.0232 19.1123 10.023 19.1123 10.0227C19.1123 10.0224 19.1123 10.0221 19.1123 10.0219C19.1123 10.0216 19.1123 10.0213 19.1123 10.021C19.1123 10.0207 19.1123 10.0205 19.1123 10.0202C19.1123 10.0199 19.1123 10.0196 19.1123 10.0194C19.1123 10.0191 19.1123 10.0188 19.1123 10.0185C19.1123 10.0183 19.1123 10.018 19.1123 10.0177C19.1123 10.0174 19.1123 10.0172 19.1123 10.0169C19.1123 10.0166 19.1123 10.0163 19.1123 10.0161C19.1123 10.0158 19.1123 10.0155 19.1123 10.0152C19.1123 10.0149 19.1123 10.0147 19.1123 10.0144C19.1123 10.0141 19.1123 10.0138 19.1123 10.0136C19.1123 10.0133 19.1123 10.013 19.1123 10.0128C19.1123 10.0125 19.1123 10.0122 19.1123 10.0119C19.1123 10.0117 19.1123 10.0114 19.1123 10.0111C19.1123 10.0108 19.1123 10.0106 19.1123 10.0103C19.1123 10.01 19.1123 10.0097 19.1123 10.0095C19.1123 10.0092 19.1123 10.0089 19.1123 10.0086C19.1123 10.0084 19.1123 10.0081 19.1123 10.0078C19.1123 10.0075 19.1123 10.0073 19.1123 10.007C19.1123 10.0067 19.1123 10.0065 19.1123 10.0062C19.1123 10.0059 19.1123 10.0056 19.1123 10.0054C19.1123 10.0051 19.1123 10.0048 19.1123 10.0045C19.1123 10.0043 19.1123 10.004 19.1123 10.0037C19.1123 10.0035 19.1123 10.0032 19.1123 10.0029C19.1123 10.0026 19.1123 10.0024 19.1123 10.0021C19.1123 10.0018 19.1123 10.0016 19.1123 10.0013C19.1123 10.001 19.1123 10.0007 19.1123 10.0005C19.1123 10.0002 19.1123 9.99993 19.1123 9.99966C19.1123 9.99939 19.1123 9.99911 19.1123 9.99884C19.1123 9.99857 19.1123 9.9983 19.1123 9.99803C19.1123 9.99776 19.1123 9.99749 19.1123 9.99722C19.1123 9.99695 19.1123 9.99668 19.1123 9.99641C19.1123 9.99614 19.1123 9.99587 19.1123 9.9956C19.1123 9.99533 19.1123 9.99506 19.1123 9.99479C19.1123 9.99452 19.1123 9.99425 19.1123 9.99398C19.1123 9.99371 19.1123 9.99344 19.1123 9.99317C19.1123 9.9929 19.1123 9.99264 19.1123 9.99237C19.1123 9.9921 19.1123 9.99183 19.1123 9.99156C19.1123 9.99129 19.1123 9.99102 19.1123 9.99076C19.1123 9.99049 19.1123 9.99022 19.1123 9.98995C19.1123 9.98968 19.1123 9.98941 19.1123 9.98915C19.1123 9.98888 19.1123 9.98861 19.1123 9.98834C19.1123 9.98807 19.1123 9.98781 19.1123 9.98754C19.1123 9.98727 19.1123 9.987 19.1123 9.98674C19.1123 9.98647 19.1123 9.9862 19.1123 9.98594C19.1123 9.98567 19.1123 9.9854 19.1123 9.98513C19.1123 9.98487 19.1123 9.9846 19.1123 9.98433C19.1123 9.98407 19.1123 9.9838 19.1123 9.98353C19.1123 9.98327 19.1123 9.983 19.1123 9.98273C19.1123 9.98247 19.1123 9.9822 19.1123 9.98194C19.1123 9.98167 19.1123 9.98141 19.1123 9.98114C19.1123 9.98087 19.1123 9.98061 19.1123 9.98034C19.1123 9.98008 19.1123 9.97981 19.1123 9.97955C19.1123 9.97928 19.1123 9.97902 19.1123 9.97875C19.1123 9.97849 19.1123 9.97822 19.1123 9.97796C19.1123 9.97769 19.1123 9.97743 19.1123 9.97716C19.1123 9.9769 19.1123 9.97663 19.1123 9.97637C19.1123 9.9761 19.1123 9.97584 19.1123 9.97558C19.1123 9.97531 19.1123 9.97505 19.1123 9.97478C19.1123 9.97452 19.1123 9.97426 19.1123 9.97399C19.1123 9.97373 19.1123 9.97346 19.1123 9.9732C19.1123 9.97294 19.1123 9.97268 19.1123 9.97241C19.1123 9.97215 19.1123 9.97189 19.1123 9.97162C19.1123 9.97136 19.1123 9.9711 19.1123 9.97083C19.1123 9.97057 19.1123 9.97031 19.1123 9.97005C19.1123 9.96978 19.1123 9.96952 19.1123 9.96926C19.1123 9.969 19.1123 9.96873 19.1123 9.96847C19.1123 9.96821 19.1123 9.96795 19.1123 9.96769C19.1123 9.96742 19.1123 9.96716 19.1123 9.9669C19.1123 9.96664 19.1123 9.96638 19.1123 9.96612C19.1123 9.96585 19.1123 9.96559 19.1123 9.96533C19.1123 9.96507 19.1123 9.96481 19.1123 9.96455C19.1123 9.96429 19.1123 9.96403 19.1123 9.96377C19.1123 9.96351 19.1123 9.96325 19.1123 9.96299C19.1123 9.96272 19.1123 9.96247 19.1123 9.9622C19.1123 9.96194 19.1123 9.96169 19.1123 9.96142C19.1123 9.96116 19.1123 9.96091 19.1123 9.96064C19.1123 9.96038 19.1123 9.96012 19.1123 9.95987C19.1123 9.95961 19.1123 9.95935 19.1123 9.95909C19.1123 9.95883 19.1123 9.95857 19.1123 9.95831C19.1123 9.95805 19.1123 9.95779 19.1123 9.95753C19.1123 9.95727 19.1123 9.95701 19.1123 9.95676C19.1123 9.9565 19.1123 9.95624 19.1123 9.95598C19.1123 9.95572 19.1123 9.95546 19.1123 9.95521C19.1123 9.95495 19.1123 9.95469 19.1123 9.95443C19.1123 9.95417 19.1123 9.95392 19.1123 9.95366C19.1123 9.9534 19.1123 9.95314 19.1123 9.95288C19.1123 9.95263 19.1123 9.95237 19.1123 9.95211C19.1123 9.95186 19.1123 9.9516 19.1123 9.95134C19.1123 9.95108 19.1123 9.95083 19.1123 9.95057C19.1123 9.95031 19.1123 9.95006 19.1123 9.9498C19.1123 9.94954 19.1123 9.94929 19.1123 9.94903C19.1123 9.94877 19.1123 9.94852 19.1123 9.94826C19.1123 9.94801 19.1123 9.94775 19.1123 9.94749C19.1123 9.94724 19.1123 9.94698 19.1123 9.94673C19.1123 9.94647 19.1123 9.94622 19.1123 9.94596C19.1123 9.94571 19.1123 9.94545 19.1123 9.94519C19.1123 9.94494 19.1123 9.94468 19.1123 9.94443C19.1123 9.94417 19.1123 9.94392 19.1123 9.94366C19.1123 9.94341 19.1123 9.94316 19.1123 9.9429C19.1123 9.94265 19.1123 9.94239 19.1123 9.94214C19.1123 9.94188 19.1123 9.94163 19.1123 9.94138C19.1123 9.94112 19.1123 9.94087 19.1123 9.94061C19.1123 9.94036 19.1123 9.94011 19.1123 9.93985C19.1123 9.9396 19.1123 9.93934 19.1123 9.93909C19.1123 9.93884 19.1123 9.93859 19.1123 9.93833C19.1123 9.93808 19.1123 9.93782 19.1123 9.93757C19.1123 9.93732 19.1123 9.93707 19.1123 9.93681C19.1123 9.93656 19.1123 9.93631 19.1123 9.93606C19.1123 9.9358 19.1123 9.93555 19.1123 9.9353C19.1123 9.93505 19.1123 9.9348 19.1123 9.93454C19.1123 9.93429 19.1123 9.93404 19.1123 9.93379C19.1123 9.93353 19.1123 9.93328 19.1123 9.93303C19.1123 9.93278 19.1123 9.93253 19.1123 9.93228C19.1123 9.93203 19.1123 9.93177 19.1123 9.93152C19.1123 9.93127 19.1123 9.93102 19.1123 9.93077C19.1123 9.93052 19.1123 9.93027 19.1123 9.93002C19.1123 9.92977 19.1123 9.92952 19.1123 9.92927C19.1123 9.92902 19.1123 9.92877 19.1123 9.92852C19.1123 9.92827 19.1123 9.92802 19.1123 9.92776C19.1123 9.92752 19.1123 9.92727 19.1123 9.92702C19.1123 9.92677 19.1123 9.92652 19.1123 9.92627C19.1123 9.92602 19.1123 9.92577 19.1123 9.92552C19.1123 9.92527 19.1123 9.92502 19.1123 9.92477C19.1123 9.92452 19.1123 9.92427 19.1123 9.92402C19.1123 9.92378 19.1123 9.92353 19.1123 9.92328C19.1123 9.92303 19.1123 9.92278 19.1123 9.92253C19.1123 9.92229 19.1123 9.92204 19.1123 9.92179C19.1123 9.92154 19.1123 9.92129 19.1123 9.92105C19.1123 9.9208 19.1123 9.92055 19.1123 9.9203C19.1123 9.92005 19.1123 9.91981 19.1123 9.91956C19.1123 9.91931 19.1123 9.91906 19.1123 9.91882C19.1123 9.91857 19.1123 9.91832 19.1123 9.91808C19.1123 9.91783 19.1123 9.91758 19.1123 9.91734C19.1123 9.91709 19.1123 9.91684 19.1123 9.9166C19.1123 9.91635 19.1123 9.9161 19.1123 9.91586C19.1123 9.91561 19.1123 9.91536 19.1123 9.91512C19.1123 9.91487 19.1123 9.91463 19.1123 9.91438C19.1123 9.91413 19.1123 9.91389 19.1123 9.91364C19.1123 9.9134 19.1123 9.91315 19.1123 9.9129C19.1123 9.91266 19.1123 9.91241 19.1123 9.91217C19.1123 9.91192 19.1123 9.91168 19.1123 9.91143C19.1123 9.91119 19.1123 9.91094 19.1123 9.9107C19.1123 9.91046 19.1123 9.91021 19.1123 9.90997C19.1123 9.90972 19.1123 9.90948 19.1123 9.90923C19.1123 9.90899 19.1123 9.90874 19.1123 9.9085C19.1123 9.90826 19.1123 9.90801 19.1123 9.90777C19.1123 9.90752 19.1123 9.90728 19.1123 9.90704C19.1123 9.90679 19.1123 9.90655 19.1123 9.90631C19.1123 9.90606 19.1123 9.90582 19.1123 9.90558C19.1123 9.90533 19.1123 9.90509 19.1123 9.90485C19.1123 9.90461 19.1123 9.90436 19.1123 9.90412C19.1123 9.90388 19.1123 9.90364 19.1123 9.90339C19.1123 9.90315 19.1123 9.90291 19.1123 9.90267C19.1123 9.90242 19.1123 9.90218 19.1123 9.90194C19.1123 9.9017 19.1123 9.90145 19.1123 9.90121C19.1123 9.90097 19.1123 9.90073 19.1123 9.90049C19.1123 9.90025 19.1123 9.90001 19.1123 9.89977C19.1123 9.89952 19.1123 9.89928 19.1123 9.89904C19.1123 9.8988 19.1123 9.89856 19.1123 9.89832C19.1123 9.89808 19.1123 9.89784 19.1123 9.8976C19.1123 9.89736 19.1123 9.89712 19.1123 9.89688C19.1123 9.89664 19.1123 9.89639 19.1123 9.89615C19.1123 9.89591 19.1123 9.89567 19.1123 9.89543C19.1123 9.8952 19.1123 9.89495 19.1123 9.89471C19.1123 9.89448 19.1123 9.89424 19.1123 9.894C19.1123 9.89376 19.1123 9.89352 19.1123 9.89328C19.1123 9.89304 19.1123 9.8928 19.1123 9.89256C19.1123 9.89232 19.1123 9.89208 19.1123 9.89184C19.1123 9.89161 19.1123 9.89137 19.1123 9.89113C19.1123 9.89089 19.1123 9.89065 19.1123 9.89041C19.1123 9.89017 19.1123 9.88994 19.1123 9.8897C19.1123 9.88946 19.1123 9.88922 19.1123 9.88898C19.1123 9.88875 19.1123 9.88851 19.1123 9.88827C19.1123 9.88803 19.1123 9.8878 19.1123 9.88756C19.1123 9.88732 19.1123 9.88708 19.1123 9.88685C19.1123 9.88661 19.1123 9.88637 19.1123 9.88614C19.1123 9.8859 19.1123 9.88566 19.1123 9.88543C19.1123 9.88519 19.1123 9.88495 19.1123 9.88472C19.1123 9.88448 19.1123 9.88424 19.1123 9.88401C19.1123 9.88377 19.1123 9.88353 19.1123 9.8833C19.1123 9.88306 19.1123 9.88283 19.1123 9.88259C19.1123 9.88235 19.1123 9.88212 19.1123 9.88188C19.1123 9.88165 19.1123 9.88141 19.1123 9.88118C19.1123 9.88094 19.1123 9.88071 19.1123 9.88047C19.1123 9.88024 19.1123 9.88 19.1123 9.87977C19.1123 9.87953 19.1123 9.8793 19.1123 9.87906C19.1123 9.87883 19.1123 9.87859 19.1123 9.87836C19.1123 9.87812 19.1123 9.87789 19.1123 9.87766C19.1123 9.87742 19.1123 9.87719 19.1123 9.87695H18.1123ZM18.114 10.3677C18.1277 10.5316 18.1348 10.7122 18.1348 10.9102H19.1348C19.1348 10.6888 19.1269 10.4802 19.1106 10.2846L18.114 10.3677ZM18.1348 10.9102C18.1348 11.6283 18.0627 12.5249 17.9148 13.605L18.9055 13.7407C19.0571 12.6346 19.1348 11.6894 19.1348 10.9102H18.1348ZM17.9148 13.605C17.7675 14.6802 17.546 15.8553 17.2493 17.1309L18.2233 17.3574C18.5256 16.0575 18.7533 14.8517 18.9055 13.7407L17.9148 13.605ZM17.2496 17.1296C16.9536 18.3878 16.583 19.7075 16.1374 21.0887L17.0891 21.3957C17.542 19.9918 17.9201 18.646 18.223 17.3587L17.2496 17.1296ZM16.1364 21.0919C15.7076 22.4522 15.2048 23.7906 14.628 25.1069L15.5439 25.5083C16.135 24.1593 16.6505 22.7873 17.0902 21.3925L16.1364 21.0919ZM14.628 25.1069C14.0519 26.4216 13.4097 27.6762 12.7017 28.8711L13.562 29.3809C14.2914 28.1499 14.952 26.859 15.5439 25.5083L14.628 25.1069ZM12.7031 28.8687C12.0012 30.0386 11.2293 31.0643 10.3886 31.9484L11.1133 32.6375C12.0096 31.6948 12.825 30.6092 13.5606 29.3832L12.7031 28.8687ZM10.3915 31.9455C9.5564 32.8093 8.66292 33.4868 7.71185 33.9836L8.17487 34.8699C9.23031 34.3186 10.2086 33.5735 11.1105 32.6405L10.3915 31.9455ZM7.70393 33.9878C6.78891 34.4869 5.81554 34.7354 4.77637 34.7354V35.7354C5.98328 35.7354 7.12124 35.4447 8.18279 34.8657L7.70393 33.9878ZM4.77637 34.7354C4.07629 34.7354 3.53359 34.598 3.1207 34.3552L2.61368 35.2171C3.21901 35.5732 3.9491 35.7354 4.77637 35.7354V34.7354ZM3.1111 34.3497C2.65234 34.0933 2.29457 33.7906 2.02651 33.446L1.23716 34.0599C1.59801 34.5238 2.06381 34.91 2.62328 35.2226L3.1111 34.3497ZM2.03184 33.4529C1.74197 33.0664 1.52669 32.6805 1.38058 32.2953L0.445587 32.65C0.628911 33.1333 0.892792 33.6009 1.23184 34.0529L2.03184 33.4529ZM1.38252 32.3005C1.22032 31.8582 1.10644 31.5078 1.03725 31.2448L0.0701737 31.4993C0.150717 31.8054 0.276421 32.1887 0.443648 32.6448L1.38252 32.3005ZM0.739406 31.8363L0.964016 31.7465L0.592625 30.818L0.368016 30.9078L0.739406 31.8363ZM0.316312 31.4734C0.521249 31.9687 0.808936 32.3917 1.18407 32.7311L1.85499 31.9896C1.60122 31.76 1.39477 31.4643 1.24033 31.091L0.316312 31.4734ZM1.18407 32.7311C1.5368 33.0503 1.92616 33.3047 2.35137 33.4918L2.7541 32.5765C2.43061 32.4342 2.13117 32.2395 1.85499 31.9896L1.18407 32.7311ZM2.35791 33.4947C2.78184 33.674 3.22202 33.8044 3.67773 33.8858L3.85352 32.9013C3.47069 32.833 3.10227 32.7238 2.74755 32.5737L2.35791 33.4947ZM3.69731 33.8889C4.15398 33.9519 4.61105 33.9834 5.06836 33.9834V32.9834C4.65718 32.9834 4.24576 32.955 3.83394 32.8982L3.69731 33.8889ZM5.06836 33.9834C6.13557 33.9834 7.15536 33.7401 8.12204 33.2568L7.67483 32.3624C6.84464 32.7775 5.97771 32.9834 5.06836 32.9834V33.9834ZM8.12795 33.2538C9.07604 32.7639 9.95576 32.1107 10.7676 31.2989L10.0605 30.5918C9.31507 31.3372 8.51771 31.9268 7.66893 32.3654L8.12795 33.2538ZM10.7676 31.2989C11.5891 30.4774 12.3448 29.528 13.0358 28.453L12.1946 27.9122C11.538 28.9336 10.8263 29.826 10.0605 30.5918L10.7676 31.2989ZM13.0349 28.4545C13.737 27.3707 14.3698 26.2194 14.9333 25.0009L14.0257 24.5811C13.4811 25.7585 12.871 26.8682 12.1956 27.9107L13.0349 28.4545ZM14.9311 25.0055C15.5092 23.7886 16.0111 22.5338 16.4368 21.2414L15.487 20.9285C15.0742 22.1817 14.5878 23.3976 14.0279 24.5765L14.9311 25.0055ZM16.4357 21.2447C16.8749 19.9422 17.239 18.6608 17.5274 17.4006L16.5526 17.1775C16.2721 18.403 15.9174 19.6522 15.4881 20.9252L16.4357 21.2447ZM17.5261 17.4062C17.8297 16.1463 18.0506 14.9363 18.1879 13.7766L17.1949 13.659C17.0627 14.7753 16.8493 15.9462 16.554 17.1719L17.5261 17.4062ZM18.1871 13.783C18.3393 12.6265 18.409 11.5757 18.3935 10.6324L17.3936 10.6488C17.4081 11.5324 17.343 12.533 17.1957 13.6525L18.1871 13.783ZM18.3936 10.6406C18.3936 10.4081 18.377 10.1495 18.3456 9.86666L17.3517 9.97709C17.3802 10.2333 17.3936 10.4539 17.3936 10.6406H18.3936ZM18.3456 9.86666C18.3154 9.59513 18.2852 9.33829 18.2549 9.09619L17.2626 9.22022C17.2923 9.45728 17.322 9.70956 17.3517 9.97709L18.3456 9.86666ZM18.2439 9.27947C18.2491 9.25861 18.2666 9.20523 18.3082 9.10809L17.3891 8.71417C17.3408 8.82667 17.2985 8.93801 17.2737 9.03694L18.2439 9.27947ZM18.2828 9.1592C18.3249 9.0854 18.3807 9.00624 18.4529 8.92208L17.6936 8.27128C17.5861 8.39675 17.4921 8.52723 17.4145 8.66306L18.2828 9.1592ZM18.4529 8.92208C18.5007 8.86626 18.553 8.82599 18.6113 8.79682L18.1641 7.9024C17.9828 7.99302 17.8255 8.11746 17.6936 8.27128L18.4529 8.92208ZM18.6305 8.78669C18.6795 8.75945 18.7505 8.7373 18.8594 8.7373V7.7373C18.6089 7.7373 18.3654 7.79002 18.1449 7.91253L18.6305 8.78669ZM18.8594 8.7373C18.982 8.7373 19.1967 8.80786 19.4366 9.34093L20.3485 8.93056C20.0494 8.2657 19.5753 7.7373 18.8594 7.7373V8.7373ZM19.4409 9.35027C19.6986 9.89271 19.913 10.6298 20.0734 11.5776L21.0594 11.4107C20.8904 10.4119 20.6556 9.5767 20.3442 8.92121L19.4409 9.35027ZM20.0734 11.5776C20.2349 12.5317 20.3606 13.6235 20.4495 14.8544L21.4469 14.7823C21.3562 13.5275 21.2273 12.4031 21.0594 11.4107L20.0734 11.5776ZM20.4496 14.8548C20.5391 16.0782 20.6137 17.3242 20.6734 18.5928L21.6723 18.5458C21.6122 17.2689 21.5371 16.0142 21.4469 14.7819L20.4496 14.8548ZM20.6734 18.5928C20.7332 19.8641 20.7856 21.0979 20.8304 22.2941L21.8297 22.2567C21.7847 21.0571 21.7323 19.8201 21.6723 18.5458L20.6734 18.5928ZM20.8304 22.2941C20.8756 23.4993 20.9436 24.5511 21.0348 25.448L22.0297 25.3469C21.9412 24.4769 21.8744 23.4473 21.8297 22.2567L20.8304 22.2941ZM21.5322 25.8975C21.7493 25.8975 21.8973 25.7718 21.9466 25.7282C22.0165 25.6663 22.0781 25.5917 22.1303 25.5213C22.2368 25.3778 22.3564 25.1802 22.4872 24.9416L21.6104 24.4608C21.4867 24.6864 21.3929 24.8369 21.3272 24.9255C21.2933 24.9711 21.2791 24.9836 21.2835 24.9796C21.2862 24.9773 21.3043 24.9612 21.3372 24.944C21.3688 24.9274 21.4371 24.8975 21.5322 24.8975V25.8975ZM22.4812 24.9522C22.7564 24.4784 23.0974 23.8492 23.5033 23.0673L22.6158 22.6065C22.2132 23.3819 21.8803 23.9956 21.6164 24.4501L22.4812 24.9522ZM23.5051 23.0639C23.9101 22.2689 24.3749 21.3468 24.8994 20.2978L24.0049 19.8506C23.4812 20.898 23.0176 21.8177 22.614 22.61L23.5051 23.0639ZM24.9006 20.2953C25.4247 19.2322 25.9787 18.1093 26.5626 16.9264L25.6659 16.4837C25.0819 17.6668 24.5278 18.7899 24.0037 19.8531L24.9006 20.2953ZM26.5603 16.9309C27.1589 15.7487 27.78 14.529 28.4236 13.2718L27.5334 12.8161C26.8892 14.0745 26.2675 15.2956 25.6682 16.4792L26.5603 16.9309ZM28.4214 13.2759C29.0791 12.0204 29.7292 10.8023 30.3718 9.62185L29.4935 9.14378C28.8482 10.3292 28.1956 11.5519 27.5356 12.8119L28.4214 13.2759ZM30.3694 9.6261C31.0252 8.44877 31.6729 7.33939 32.3128 6.29784L31.4607 5.77442C30.8127 6.82923 30.1578 7.95097 29.4958 9.13952L30.3694 9.6261ZM32.3144 6.29515C32.9519 5.24246 33.5567 4.33587 34.1285 3.57344L33.3285 2.97344C32.7324 3.7683 32.1093 4.7035 31.459 5.77712L32.3144 6.29515ZM34.1312 3.56978C34.7033 2.79236 35.2281 2.19103 35.705 1.7562L35.0313 1.01724C34.49 1.51079 33.9217 2.16727 33.3258 2.9771L34.1312 3.56978ZM35.705 1.7562C36.1864 1.31727 36.5171 1.19043 36.7158 1.19043V0.19043C36.1359 0.19043 35.5681 0.527784 35.0313 1.01724L35.705 1.7562ZM36.4508 1.11443C36.5453 1.17349 36.6438 1.24686 36.7459 1.33625L37.4044 0.583673C37.267 0.463431 37.1259 0.357108 36.9808 0.26643L36.4508 1.11443ZM36.7752 1.35996C36.7868 1.36866 36.7788 1.3657 36.7688 1.34687C36.764 1.33787 36.7602 1.32787 36.7577 1.31781C36.7553 1.30788 36.7549 1.30049 36.7549 1.29688H37.7549C37.7549 0.985639 37.6048 0.732158 37.3752 0.559961L36.7752 1.35996ZM36.7727 1.16471C36.2184 3.18692 35.6343 5.33634 35.0202 7.61295L35.9857 7.87338C36.5995 5.59791 37.1833 3.4498 37.7371 1.42904L36.7727 1.16471ZM35.0204 7.61215C34.4043 9.88132 33.8333 12.2101 33.3076 14.5986L34.2842 14.8135C34.8066 12.4403 35.3737 10.1271 35.9855 7.87418L35.0204 7.61215ZM33.307 14.6015C32.7954 16.9938 32.3666 19.4085 32.0206 21.8457L33.0107 21.9863C33.3534 19.5719 33.7782 17.18 34.2848 14.8106L33.307 14.6015ZM32.0202 21.8487C31.6878 24.2959 31.5215 26.7067 31.5215 29.0811H32.5215C32.5215 26.7536 32.6846 24.3877 33.0111 21.9833L32.0202 21.8487ZM31.5215 29.0811C31.5215 29.6758 31.5684 30.3267 31.6604 31.0324L32.6521 30.9031C32.5644 30.2313 32.5215 29.6243 32.5215 29.0811H31.5215ZM31.6606 31.0339C31.7537 31.7321 31.894 32.3883 32.0827 33.0015L33.0384 32.7075C32.8677 32.1527 32.7385 31.5511 32.6519 30.9017L31.6606 31.0339ZM32.0827 33.0015C32.2721 33.6171 32.5067 34.1495 32.7934 34.5881L33.6304 34.0408C33.408 33.7008 33.2084 33.2598 33.0384 32.7075L32.0827 33.0015ZM32.7888 34.5809C33.0902 35.0595 33.5168 35.4209 34.0879 35.4209V34.4209C34.0001 34.4209 33.8428 34.378 33.635 34.048L32.7888 34.5809ZM34.0879 35.4209C34.5693 35.4209 35.0269 35.1285 35.4378 34.7492L34.7595 34.0144C34.3918 34.3539 34.1755 34.4209 34.0879 34.4209V35.4209ZM35.4378 34.7492C35.8472 34.3713 36.2527 33.9341 36.6547 33.4393L35.8785 32.8087C35.5019 33.2723 35.1287 33.6736 34.7595 34.0144L35.4378 34.7492ZM36.6593 33.4335C37.0598 32.9251 37.4227 32.408 37.7477 31.8819L36.8969 31.3564C36.5929 31.8485 36.252 32.3346 35.8739 32.8146L36.6593 33.4335ZM37.7456 31.8852C38.0787 31.3552 38.3303 30.9168 38.4924 30.5763L37.5896 30.1464C37.4523 30.4348 37.2246 30.8349 36.8989 31.3531L37.7456 31.8852ZM37.8553 30.8256L38.0799 30.9154L38.4513 29.9869L38.2267 29.8971L37.8553 30.8256ZM49.2939 35.5273L49.4695 35.0592L49.4608 35.0559L49.4521 35.053L49.2939 35.5273ZM48.71 35.2354L48.3976 35.6258L48.4066 35.633L48.4159 35.6397L48.71 35.2354ZM48.3506 34.8311L48.7793 34.5738L48.7732 34.5636L48.7666 34.5537L48.3506 34.8311ZM48.3057 34.0674L47.8585 33.8438L47.8491 33.8624L47.8414 33.8817L48.3057 34.0674ZM48.5527 33.6406L48.1581 33.3337L48.1468 33.3481L48.1367 33.3633L48.5527 33.6406ZM48.8447 33.3037L48.5193 32.9241L48.5048 32.9366L48.4912 32.9502L48.8447 33.3037ZM49.2266 33.2588L48.7415 33.3801L48.7461 33.3987L48.7522 33.4169L49.2266 33.2588ZM49.249 33.4385H48.749V33.5L48.764 33.5597L49.249 33.4385ZM49.4287 33.8203L49.1715 34.2491L49.1803 34.2543L49.1893 34.2593L49.4287 33.8203ZM50.0127 34.0449L49.8839 34.5281L49.8914 34.53L50.0127 34.0449ZM53.1123 33.8203L53.2775 34.2923L53.2841 34.2899L53.1123 33.8203ZM54.707 32.9443L55.0194 33.3348L55.0209 33.3335L54.707 32.9443ZM55.7852 31.6416L55.3461 31.4021L55.3407 31.4126L55.7852 31.6416ZM55.4482 28.1826L55.1003 28.5418L55.1059 28.547L55.4482 28.1826ZM53.5166 27.0596L53.34 27.5275L53.3506 27.5312L53.5166 27.0596ZM50.7764 26.3408L50.6895 26.8332L50.6907 26.8334L50.7764 26.3408ZM47.6543 25.7568L47.5509 26.2461L47.5576 26.2474L47.6543 25.7568ZM44.5098 24.9258L44.3495 25.3995L44.3579 25.4022L44.5098 24.9258ZM41.7695 23.5332L41.4732 23.9359L41.4768 23.9385L41.7695 23.5332ZM39.8379 21.2871L39.3951 21.5194L39.3981 21.525L39.8379 21.2871ZM40.0625 13.4482L40.5182 13.654L40.519 13.6522L40.0625 13.4482ZM55.0889 2.30762L55.2045 2.79408L55.2079 2.79324L55.0889 2.30762ZM64.208 2.8916L63.9242 3.30335L63.9307 3.30763L64.208 2.8916ZM64.3652 9.85449L64.7533 10.1698L64.758 10.1639L64.3652 9.85449ZM63.2422 11.0674L63.5793 11.4366L63.5801 11.436L63.2422 11.0674ZM62.6133 11.6514L62.1973 11.9287L62.5356 12.4362L62.9668 12.0049L62.6133 11.6514ZM62.4785 11.4492L62.125 11.0957L61.8351 11.3855L62.0625 11.7266L62.4785 11.4492ZM63.332 4.35156L63.0757 4.7809L63.0805 4.78369L63.332 4.35156ZM48.7324 6.01367L48.9709 6.45316L48.9725 6.45227L48.7324 6.01367ZM44.959 8.66406L44.6234 8.2934L44.6209 8.2957L44.959 8.66406ZM42.1738 11.7637L41.7677 11.472L41.765 11.4758L42.1738 11.7637ZM40.4443 14.9307L39.9778 14.7507L39.9756 14.7566L40.4443 14.9307ZM40.6016 20.6807L40.1842 20.9561L40.1868 20.96L40.6016 20.6807ZM42.5557 22.5L42.3007 22.9302L42.3067 22.9336L42.5557 22.5ZM45.2959 23.5781L45.1746 24.0632L45.1763 24.0636L45.2959 23.5781ZM51.6074 24.8584L51.5066 25.3482L51.5148 25.3498L51.6074 24.8584ZM54.3701 25.6895L54.167 26.1464L54.1742 26.1495L54.3701 25.6895ZM56.3242 27.082L55.9425 27.405L55.9467 27.4099L56.3242 27.082ZM56.6387 31.6191L56.1812 31.417L56.1775 31.4261L56.6387 31.6191ZM54.123 34.4268L53.8802 33.9897L53.8729 33.9937L53.8658 33.998L54.123 34.4268ZM51.0908 35.5498L51.0086 35.0566L51.0059 35.0571L51.0908 35.5498ZM50.0576 35.1621C49.8448 35.1621 49.65 35.1269 49.4695 35.0592L49.1184 35.9955C49.4171 36.1075 49.7314 36.1621 50.0576 36.1621V35.1621ZM49.4521 35.053C49.2684 34.9918 49.1212 34.9162 49.004 34.831L48.4159 35.6397C48.6282 35.7941 48.8703 35.9132 49.1358 36.0017L49.4521 35.053ZM49.0223 34.8449C48.9144 34.7586 48.8357 34.6678 48.7793 34.5738L47.9218 35.0883C48.0451 35.2938 48.206 35.4725 48.3976 35.6258L49.0223 34.8449ZM48.7666 34.5537C48.7127 34.4729 48.7158 34.4411 48.7158 34.4492H47.7158C47.7158 34.6969 47.8088 34.9197 47.9346 35.1084L48.7666 34.5537ZM48.7158 34.4492C48.7158 34.4328 48.7222 34.3722 48.7699 34.2531L47.8414 33.8817C47.7693 34.062 47.7158 34.256 47.7158 34.4492H48.7158ZM48.7529 34.291C48.8188 34.1592 48.8908 34.0349 48.9688 33.918L48.1367 33.3633C48.035 33.5159 47.9423 33.6761 47.8585 33.8438L48.7529 34.291ZM48.9474 33.9476C49.0435 33.824 49.1271 33.7285 49.1983 33.6573L48.4912 32.9502C48.3827 33.0587 48.2716 33.1877 48.1581 33.3337L48.9474 33.9476ZM49.1701 33.6833C49.1876 33.6683 49.2013 33.6577 49.2113 33.6505C49.2215 33.6432 49.2258 33.6409 49.2245 33.6416C49.2237 33.6421 49.2129 33.6479 49.1932 33.6542C49.1737 33.6603 49.1386 33.6689 49.0918 33.6689V32.6689C48.9438 32.6689 48.8226 32.7217 48.7457 32.7637C48.6632 32.8087 48.5871 32.866 48.5193 32.9241L49.1701 33.6833ZM49.0918 33.6689C49.0674 33.6689 48.9901 33.6646 48.9043 33.6074C48.8084 33.5435 48.7595 33.4522 48.7415 33.3801L49.7116 33.1375C49.6786 33.0055 49.5998 32.8693 49.459 32.7754C49.3283 32.6883 49.191 32.6689 49.0918 32.6689V33.6689ZM48.7522 33.4169C48.7494 33.4085 48.7481 33.4027 48.7475 33.4001C48.7469 33.3974 48.747 33.397 48.7473 33.3994C48.7479 33.4046 48.749 33.4171 48.749 33.4385H49.749C49.749 33.3373 49.7398 33.2173 49.7009 33.1007L48.7522 33.4169ZM48.764 33.5597C48.7766 33.6104 48.7899 33.6699 48.8037 33.7387L49.7842 33.5426C49.7681 33.4617 49.7514 33.3863 49.7341 33.3172L48.764 33.5597ZM48.8037 33.7387C48.8503 33.9721 48.9949 34.1431 49.1715 34.2491L49.686 33.3916C49.6949 33.3969 49.7166 33.412 49.7389 33.4417C49.7621 33.4727 49.7774 33.5083 49.7842 33.5426L48.8037 33.7387ZM49.1893 34.2593C49.3961 34.3721 49.6295 34.4602 49.8839 34.528L50.1415 33.5618C49.9467 33.5098 49.7907 33.4482 49.6681 33.3814L49.1893 34.2593ZM49.8914 34.53C50.1949 34.6059 50.6371 34.6348 51.1807 34.6348V33.6348C50.6461 33.6348 50.3096 33.6038 50.134 33.5598L49.8914 34.53ZM51.1807 34.6348C51.9209 34.6348 52.6211 34.522 53.2775 34.2922L52.9471 33.3484C52.4056 33.5379 51.818 33.6348 51.1807 33.6348V34.6348ZM53.2841 34.2899C53.942 34.0492 54.5226 33.7322 55.0194 33.3348L54.3947 32.5539C53.9931 32.8752 53.5104 33.1422 52.9405 33.3507L53.2841 34.2899ZM55.0209 33.3335C55.5353 32.9187 55.9409 32.4311 56.2296 31.8706L55.3407 31.4126C55.1203 31.8404 54.8071 32.2213 54.3932 32.5551L55.0209 33.3335ZM56.2241 31.881C56.5341 31.3126 56.6895 30.6986 56.6895 30.0469H55.6895C55.6895 30.5332 55.5752 30.9823 55.3462 31.4022L56.2241 31.881ZM56.6895 30.0469C56.6895 29.1527 56.4006 28.3912 55.7906 27.8182L55.1059 28.547C55.4842 28.9024 55.6895 29.3838 55.6895 30.0469H56.6895ZM55.7961 27.8235C55.2526 27.297 54.5405 26.8898 53.6826 26.5879L53.3506 27.5312C54.1099 27.7984 54.6855 28.1399 55.1003 28.5417L55.7961 27.8235ZM53.6931 26.5918C52.8641 26.2789 51.9193 26.0321 50.862 25.8482L50.6907 26.8334C51.6998 27.0089 52.5818 27.2412 53.3401 27.5274L53.6931 26.5918ZM50.8633 25.8484C49.8485 25.6693 48.8111 25.4753 47.751 25.2663L47.5576 26.2474C48.6238 26.4576 49.6678 26.6529 50.6895 26.8332L50.8633 25.8484ZM47.7576 25.2676C46.7108 25.0465 45.6789 24.7737 44.6617 24.4494L44.3579 25.4022C45.4071 25.7367 46.4714 26.018 47.5509 26.246L47.7576 25.2676ZM44.67 24.4521C43.6954 24.1225 42.8273 23.6804 42.0623 23.1279L41.4768 23.9385C42.3289 24.554 43.2877 25.0402 44.3496 25.3994L44.67 24.4521ZM42.0659 23.1305C41.3348 22.5925 40.7387 21.9014 40.2777 21.0492L39.3981 21.525C39.9254 22.4997 40.617 23.3059 41.4732 23.9359L42.0659 23.1305ZM40.2807 21.0548C39.8496 20.233 39.6191 19.1733 39.6191 17.8506H38.6191C38.6191 19.2831 38.8679 20.5144 39.3951 21.5194L40.2807 21.0548ZM39.6191 17.8506C39.6191 16.3785 39.9188 14.9813 40.5182 13.654L39.6068 13.2424C38.9484 14.7003 38.6191 16.238 38.6191 17.8506H39.6191ZM40.519 13.6522C41.1263 12.2931 41.944 11.0332 42.9745 9.87193L42.2266 9.20815C41.1309 10.4427 40.2565 11.7883 39.606 13.2443L40.519 13.6522ZM42.9745 9.87193C44.0102 8.70499 45.2006 7.65293 46.5473 6.71612L45.9762 5.89521C44.5676 6.87506 43.3173 7.97926 42.2266 9.20815L42.9745 9.87193ZM46.5473 6.71612C47.9001 5.77501 49.3107 4.97428 50.7794 4.31338L50.369 3.40146C48.8429 4.08822 47.3786 4.91965 45.9762 5.89521L46.5473 6.71612ZM50.7794 4.31338C52.2496 3.6518 53.7245 3.14574 55.2045 2.79407L54.9733 1.82116C53.4285 2.18824 51.8937 2.71538 50.369 3.40146L50.7794 4.31338ZM55.2079 2.79324C56.7035 2.42667 58.0857 2.24609 59.3564 2.24609V1.24609C57.9918 1.24609 56.5289 1.43987 54.9698 1.82199L55.2079 2.79324ZM59.3564 2.24609C61.4356 2.24609 62.9353 2.62168 63.9243 3.3033L64.4917 2.47991C63.2646 1.63418 61.5299 1.24609 59.3564 1.24609V2.24609ZM63.9307 3.30763C64.8976 3.95226 65.3926 4.909 65.3926 6.26074H66.3926C66.3926 4.61769 65.7645 3.32834 64.4854 2.47558L63.9307 3.30763ZM65.3926 6.26074C65.3926 6.85338 65.2551 7.41933 64.9759 7.96445L65.8659 8.42032C66.2156 7.73757 66.3926 7.01576 66.3926 6.26074H65.3926ZM64.9759 7.96445C64.6748 8.55231 64.34 9.07863 63.9725 9.54506L64.758 10.1639C65.1691 9.64208 65.5381 9.06032 65.8659 8.42032L64.9759 7.96445ZM63.9772 9.5392C63.5994 10.0041 63.2417 10.3896 62.9043 10.6988L63.5801 11.436C63.9614 11.0864 64.3524 10.6632 64.7533 10.1698L63.9772 9.5392ZM62.9051 10.6981C62.5643 11.0092 62.3446 11.213 62.2597 11.2978L62.9668 12.0049C63.0317 11.94 63.2312 11.7544 63.5793 11.4366L62.9051 10.6981ZM63.0293 11.374L62.8945 11.1719L62.0625 11.7266L62.1973 11.9287L63.0293 11.374ZM62.8321 11.8028C62.8537 11.7811 62.9969 11.6298 63.2463 11.3658L62.5193 10.6791C62.3921 10.8139 62.295 10.9166 62.2278 10.9874C62.1943 11.0229 62.1684 11.0501 62.1501 11.0693C62.1292 11.0913 62.1233 11.0974 62.125 11.0957L62.8321 11.8028ZM63.2463 11.3658C63.5246 11.0712 63.8106 10.704 64.1051 10.27L63.2777 9.70851C63.0032 10.113 62.7502 10.4347 62.5193 10.6791L63.2463 11.3658ZM64.1051 10.27C64.4058 9.82695 64.6805 9.33974 64.9299 8.80958L64.0251 8.38378C63.7954 8.87185 63.546 9.31302 63.2777 9.70851L64.1051 10.27ZM64.9299 8.80958C65.1985 8.23886 65.3369 7.64989 65.3369 7.04688H64.3369C64.3369 7.49203 64.2357 7.93627 64.0251 8.38378L64.9299 8.80958ZM65.3369 7.04688C65.3369 5.66579 64.7489 4.59779 63.5836 3.91944L63.0805 4.78369C63.9216 5.2733 64.3369 6.00218 64.3369 7.04688H65.3369ZM63.5883 3.92225C62.4728 3.25624 60.9073 2.95312 58.9521 2.95312V3.95312C60.8303 3.95312 62.1848 4.24897 63.0757 4.78087L63.5883 3.92225ZM58.9521 2.95312C56.9364 2.95312 55.05 3.18984 53.2956 3.66693L53.558 4.63189C55.2176 4.1806 57.0148 3.95312 58.9521 3.95312V2.95312ZM53.2956 3.66693C51.554 4.14051 49.9523 4.77596 48.4923 5.57508L48.9725 6.45227C50.3576 5.69409 51.8854 5.08671 53.558 4.63189L53.2956 3.66693ZM48.494 5.57419C47.0539 6.35551 45.763 7.2616 44.6234 8.29341L45.2946 9.03471C46.3711 8.06002 47.5958 7.19918 48.9709 6.45315L48.494 5.57419ZM44.6209 8.2957C43.5058 9.3191 42.5538 10.3776 41.7677 11.472L42.5799 12.0554C43.3212 11.0234 44.2259 10.0155 45.2971 9.03243L44.6209 8.2957ZM41.765 11.4758C40.9964 12.5673 40.399 13.6589 39.9778 14.7507L40.9108 15.1106C41.2983 14.1061 41.8539 13.0863 42.5826 12.0516L41.765 11.4758ZM39.9756 14.7566C39.5713 15.8452 39.3604 16.8634 39.3604 17.8057H40.3604C40.3604 17.0109 40.5388 16.1125 40.913 15.1048L39.9756 14.7566ZM39.3604 17.8057C39.3604 19.0424 39.6221 20.1043 40.1843 20.9561L41.0189 20.4052C40.5928 19.7596 40.3604 18.9049 40.3604 17.8057H39.3604ZM40.1868 20.96C40.725 21.759 41.4324 22.4156 42.3008 22.9301L42.8106 22.0699C42.0617 21.6261 41.4664 21.0698 41.0163 20.4014L40.1868 20.96ZM42.3067 22.9336C43.16 23.4234 44.1172 23.7988 45.1746 24.0632L45.4172 23.0931C44.4381 22.8483 43.5686 22.5049 42.8046 22.0664L42.3067 22.9336ZM45.1763 24.0636C46.22 24.3207 47.2859 24.5475 48.3741 24.744L48.5517 23.7599C47.4836 23.5671 46.4382 23.3446 45.4155 23.0926L45.1763 24.0636ZM48.3741 24.744C49.4484 24.938 50.4926 25.1394 51.5066 25.3481L51.7082 24.3687C50.6858 24.1582 49.6336 23.9553 48.5517 23.7599L48.3741 24.744ZM51.5148 25.3498C52.5169 25.5385 53.3997 25.8053 54.167 26.1464L54.5732 25.2325C53.7233 24.8548 52.7643 24.5676 51.7 24.367L51.5148 25.3498ZM54.1742 26.1495C54.9217 26.4679 55.5058 26.8889 55.9425 27.405L56.7059 26.7591C56.1544 26.1072 55.4357 25.5998 54.566 25.2294L54.1742 26.1495ZM55.9467 27.4099C56.3435 27.8668 56.5654 28.4963 56.5654 29.3506H57.5654C57.5654 28.3181 57.2933 27.4353 56.7017 26.7542L55.9467 27.4099ZM56.5654 29.3506C56.5654 30.1653 56.4319 30.8499 56.1813 31.4171L57.096 31.8212C57.4144 31.1006 57.5654 30.2728 57.5654 29.3506H56.5654ZM56.1775 31.4261C55.9286 32.0205 55.6077 32.5229 55.2179 32.9397L55.9481 33.6228C56.4268 33.1112 56.8097 32.5055 57.0999 31.8122L56.1775 31.4261ZM55.2179 32.9397C54.8181 33.367 54.3724 33.7162 53.8802 33.9897L54.3659 34.8638C54.9518 34.5383 55.4795 34.1238 55.9481 33.6228L55.2179 32.9397ZM53.8658 33.998C53.3687 34.2963 52.8764 34.5278 52.3886 34.695L52.7129 35.6409C53.2734 35.4488 53.8292 35.1862 54.3803 34.8555L53.8658 33.998ZM52.3886 34.695C51.8852 34.8676 51.4256 34.9871 51.0086 35.0566L51.173 36.043C51.6545 35.9628 52.1682 35.8277 52.7129 35.6409L52.3886 34.695ZM51.0059 35.0571C50.5826 35.1301 50.2704 35.1621 50.0576 35.1621V36.1621C50.3539 36.1621 50.7306 36.1193 51.1758 36.0425L51.0059 35.0571Z" fill="#26313F" mask="url(#path-1-outside-1_2011_12)"/>
</svg>
